<?xml version="1.0" encoding="utf-8"?>
<!-- Generator: Adobe Illustrator 27.5.0, SVG Export Plug-In . SVG Version: 6.00 Build 0)  -->
<svg version="1.1" xmlns="http://www.w3.org/2000/svg" xmlns:xlink="http://www.w3.org/1999/xlink" x="0px" y="0px"
	 viewBox="0 0 500 500" style="enable-background:new 0 0 500 500;" xml:space="preserve">
<g id="BACKGROUND">
	<g>
		<path style="fill:#D6EDFA;" d="M0.001,500.566V146.532c0,0-5.655-127.256,133.105-113.313
			c146.461,14.716,42.515,169.234,181.78,200.138s208.967,169.234,97.126,267.21H0.001z"/>
		<g>
			<defs>
				<rect id="SVGID_1_" width="500" height="500"/>
			</defs>
			<clipPath id="SVGID_00000005980617888956261440000001171839009447087008_">
				<use xlink:href="#SVGID_1_"  style="overflow:visible;"/>
			</clipPath>
			<g style="clip-path:url(#SVGID_00000005980617888956261440000001171839009447087008_);">
				<g>
					
						<ellipse transform="matrix(0.9625 -0.2713 0.2713 0.9625 -110.9357 101.9831)" style="fill:none;stroke:#B9DEEF;stroke-width:5.2376;stroke-miterlimit:10;" cx="313.418" cy="452.26" rx="29.595" ry="29.595"/>
					<path style="fill:#B9DEEF;" d="M312.708,466.075l-0.673-0.407c-0.153-0.092-3.782-2.299-7.427-5.547
						c-5.097-4.542-7.606-8.761-7.456-12.54c0.207-5.24,4.638-9.335,9.878-9.128l0.063,0.002c2.557,0.101,4.915,1.217,6.596,3.065
						c1.835-1.709,4.285-2.635,6.849-2.534l0.023,0.001c2.534,0.112,4.875,1.199,6.594,3.06c1.719,1.861,2.618,4.28,2.53,6.812
						l0,0.007c-0.151,3.83-2.986,7.854-8.426,11.96c-3.891,2.937-7.685,4.822-7.845,4.901L312.708,466.075z"/>
				</g>
				<g>
					
						<ellipse transform="matrix(0.9863 -0.165 0.165 0.9863 -7.1838 8.4907)" style="fill:none;stroke:#B9DEEF;stroke-width:5.2376;stroke-miterlimit:10;" cx="47.52" cy="47.49" rx="29.595" ry="29.595"/>
					<path style="fill:#B9DEEF;" d="M46.81,61.305l-0.673-0.407c-0.153-0.092-3.783-2.299-7.427-5.547
						c-5.097-4.542-7.606-8.761-7.457-12.54c0.207-5.24,4.638-9.335,9.878-9.128l0.063,0.002c2.557,0.101,4.915,1.217,6.596,3.065
						c1.835-1.709,4.285-2.635,6.849-2.534l0.023,0.001c2.534,0.112,4.875,1.199,6.595,3.06c1.719,1.861,2.618,4.28,2.53,6.812
						l0,0.007c-0.151,3.83-2.986,7.854-8.426,11.96c-3.891,2.937-7.685,4.822-7.845,4.901L46.81,61.305z"/>
				</g>
				<path style="fill:#B9DEEF;" d="M355.542,357.792c-15.14,0-27.413,12.273-27.413,27.413c0,15.14,12.273,27.413,27.413,27.413
					s27.413-12.273,27.413-27.413C382.955,370.065,370.681,357.792,355.542,357.792z M370.609,382.061
					c-0.14,3.548-2.766,7.275-7.805,11.078c-3.604,2.72-7.118,4.467-7.266,4.54l-0.653,0.323l-0.624-0.377
					c-0.141-0.085-3.503-2.13-6.879-5.138c-4.721-4.207-7.045-8.115-6.907-11.616c0.192-4.854,4.296-8.647,9.15-8.455l0.058,0.002
					c2.368,0.093,4.552,1.128,6.109,2.839c1.699-1.583,3.969-2.441,6.344-2.347l0.021,0.001c2.348,0.104,4.516,1.11,6.108,2.834
					c1.593,1.724,2.425,3.964,2.344,6.309L370.609,382.061z"/>
				<path style="fill:#B9DEEF;" d="M8.542,146.792c-15.14,0-27.413,12.273-27.413,27.413c0,15.14,12.273,27.413,27.413,27.413
					s27.413-12.273,27.413-27.413C35.955,159.066,23.681,146.792,8.542,146.792z M23.609,171.061
					c-0.14,3.548-2.766,7.275-7.805,11.078c-3.604,2.72-7.118,4.467-7.266,4.54l-0.653,0.323l-0.624-0.377
					c-0.141-0.086-3.504-2.13-6.879-5.138c-4.721-4.207-7.045-8.115-6.907-11.616c0.192-4.854,4.296-8.646,9.15-8.455l0.058,0.002
					c2.368,0.094,4.552,1.128,6.109,2.839c1.7-1.583,3.969-2.441,6.344-2.347l0.021,0.001c2.348,0.104,4.516,1.11,6.108,2.834
					c1.593,1.723,2.425,3.964,2.344,6.309L23.609,171.061z"/>
				<polygon style="fill:#B9DEEF;" points="324.321,326.793 327.175,332.575 333.556,333.502 328.939,338.003 330.029,344.358 
					324.321,341.358 318.614,344.358 319.704,338.003 315.086,333.502 321.467,332.575 				"/>
				<polygon style="fill:#B9DEEF;" points="423.282,182.792 427.36,191.055 436.478,192.38 429.88,198.811 431.438,207.893 
					423.282,203.605 415.127,207.893 416.684,198.811 410.086,192.38 419.204,191.055 				"/>
				<polygon style="fill:#B9DEEF;" points="148.282,21.792 152.36,30.055 161.478,31.38 154.88,37.811 156.438,46.893 
					148.282,42.605 140.127,46.893 141.684,37.811 135.086,31.38 144.204,30.055 				"/>
				<polygon style="fill:#B9DEEF;" points="33.762,390.036 37.84,398.299 46.958,399.624 40.36,406.055 41.918,415.136 
					33.762,410.849 25.607,415.136 27.164,406.055 20.566,399.624 29.684,398.299 				"/>
				<polygon style="fill:#B9DEEF;" points="383.438,432.793 387.516,441.055 396.634,442.38 390.036,448.811 391.593,457.893 
					383.438,453.605 375.282,457.893 376.84,448.811 370.242,442.38 379.36,441.055 				"/>
				<polygon style="fill:#B9DEEF;" points="38.36,103.242 42.438,111.505 51.556,112.83 44.958,119.261 46.516,128.343 
					38.36,124.055 30.205,128.343 31.762,119.261 25.164,112.83 34.282,111.505 				"/>
				<path style="fill:#B9DEEF;" d="M319.912,259.705c-15.14,0-27.413,12.273-27.413,27.413c0,15.14,12.273,27.413,27.413,27.413
					s27.413-12.273,27.413-27.413C347.325,271.978,335.051,259.705,319.912,259.705z M304.781,286.889
					c-2.766,0-5.008-2.242-5.008-5.008c0-2.766,2.242-5.008,5.008-5.008s5.008,2.242,5.008,5.008
					C309.788,284.647,307.546,286.889,304.781,286.889z M327.385,299.77c-0.519-9.633-14.428-9.633-14.947,0
					c-0.127,2.357-3.803,2.37-3.676,0c0.312-5.797,4.855-11.488,11.149-11.149c6.308,0.34,10.81,4.841,11.149,11.149
					C331.188,302.14,327.512,302.127,327.385,299.77z M335.043,286.889c-2.766,0-5.008-2.242-5.008-5.008
					c0-2.766,2.242-5.008,5.008-5.008s5.008,2.242,5.008,5.008C340.05,284.647,337.808,286.889,335.043,286.889z"/>
				<path style="fill:#B9DEEF;" d="M245.751,371.493c-17.344,0-31.403,14.06-31.403,31.403s14.06,31.403,31.403,31.403
					c17.343,0,31.403-14.06,31.403-31.403S263.094,371.493,245.751,371.493z M228.418,402.635c-3.168,0-5.737-2.568-5.737-5.737
					c0-3.168,2.568-5.736,5.737-5.736c3.168,0,5.736,2.568,5.736,5.736C234.154,400.066,231.586,402.635,228.418,402.635z
					 M245.751,419.496c-7.226-0.389-12.383-5.546-12.772-12.772c-0.146-2.714,4.065-2.7,4.21,0c0.594,11.035,16.529,11.035,17.123,0
					c0.145-2.7,4.357-2.714,4.21,0C258.165,413.364,252.962,419.884,245.751,419.496z M263.084,402.635
					c-3.168,0-5.737-2.568-5.737-5.737c0-3.168,2.568-5.736,5.737-5.736c3.168,0,5.737,2.568,5.737,5.736
					C268.821,400.066,266.253,402.635,263.084,402.635z"/>
				<g>
					
						<ellipse transform="matrix(0.9759 -0.2183 0.2183 0.9759 -36.9976 85.3414)" style="fill:none;stroke:#B9DEEF;stroke-width:4.3187;stroke-miterlimit:10;" cx="367.738" cy="210.114" rx="24.403" ry="24.403"/>
					<g>
						<g>
							<path style="fill:#B9DEEF;" d="M355.262,200.674c-2.28,0-4.129,1.849-4.129,4.129c0,2.28,1.849,4.129,4.129,4.129
								s4.129-1.849,4.129-4.129C359.391,202.523,357.542,200.674,355.262,200.674z"/>
							<path style="fill:#B9DEEF;" d="M380.214,200.674c-2.28,0-4.129,1.849-4.129,4.129c0,2.28,1.849,4.129,4.129,4.129
								c2.281,0,4.129-1.849,4.129-4.129C384.344,202.523,382.495,200.674,380.214,200.674z"/>
						</g>
						<g>
							<g>
								<path style="fill:#B9DEEF;" d="M377.215,219.553c-0.289-5.36-4.117-9.188-9.477-9.477c-5.349-0.288-9.212,4.551-9.477,9.477
									c-0.125,2.32,3.475,2.308,3.599,0c0.408-7.577,11.349-7.577,11.757,0C373.741,221.862,377.34,221.874,377.215,219.553
									L377.215,219.553z"/>
							</g>
						</g>
					</g>
				</g>
				<g>
					
						<ellipse transform="matrix(0.9869 -0.1615 0.1615 0.9869 -49.9659 71.2428)" style="fill:none;stroke:#B9DEEF;stroke-width:4.7612;stroke-miterlimit:10;" cx="413.158" cy="342.909" rx="26.903" ry="26.903"/>
					<g>
						<g>
							<path style="fill:#B9DEEF;" d="M399.403,332.503c-2.514,0-4.552,2.038-4.552,4.552s2.038,4.552,4.552,4.552
								c2.514,0,4.552-2.038,4.552-4.552S401.917,332.503,399.403,332.503z"/>
							<path style="fill:#B9DEEF;" d="M426.912,332.503c-2.514,0-4.552,2.038-4.552,4.552s2.038,4.552,4.552,4.552
								c2.514,0,4.552-2.038,4.552-4.552S429.426,332.503,426.912,332.503z"/>
						</g>
						<g>
							<g>
								<path style="fill:#B9DEEF;" d="M402.71,344.852c0.318,5.909,4.539,10.13,10.448,10.448
									c5.897,0.318,10.156-5.017,10.448-10.448c0.138-2.558-3.831-2.545-3.968,0c-0.45,8.354-12.511,8.354-12.961,0
									C406.54,342.307,402.572,342.294,402.71,344.852L402.71,344.852z"/>
							</g>
						</g>
					</g>
				</g>
				<g>
					
						<ellipse transform="matrix(0.9863 -0.1648 0.1648 0.9863 -55.63 11.8867)" style="fill:none;stroke:#B9DEEF;stroke-width:4.8497;stroke-miterlimit:10;" cx="43.841" cy="341.298" rx="27.403" ry="27.403"/>
					<g>
						<path style="fill:#B9DEEF;" d="M61.648,344.925c0-1.629-1.121-2.985-2.629-3.37c1.509-0.385,2.629-1.741,2.629-3.37
							c0-1.927-1.562-3.489-3.489-3.489h-12.09v-8.673c0-2.042-1.656-3.698-3.698-3.698c-2.042,0-3.698,1.656-3.698,3.698v25.533
							c0,2.042,1.656,3.698,3.698,3.698c0.072,0,0.139-0.017,0.21-0.021c0.217,0.042,0.44,0.067,0.669,0.067h14.909
							c1.927,0,3.489-1.562,3.489-3.489c0-1.769-1.322-3.215-3.029-3.443C60.327,348.14,61.648,346.694,61.648,344.925z"/>
						<rect x="30.345" y="333.699" style="fill:#B9DEEF;" width="7.024" height="22.261"/>
					</g>
				</g>
				<path style="fill:#B9DEEF;" d="M439.897,228.338c-16.345,0-29.595,13.25-29.595,29.595s13.25,29.595,29.595,29.595
					c16.345,0,29.595-13.25,29.595-29.595S456.242,228.338,439.897,228.338z M432.907,273.768h-7.586v-24.042h7.586V273.768z
					 M459.128,261.85c0,1.911-1.427,3.472-3.271,3.718c1.844,0.246,3.271,1.807,3.271,3.718c0,2.081-1.687,3.768-3.768,3.768
					h-16.102c-0.247,0-0.488-0.027-0.722-0.073c-0.077,0.004-0.149,0.023-0.227,0.023c-2.206,0-3.994-1.788-3.994-3.994v-27.575
					c0-2.206,1.788-3.994,3.994-3.994c2.206,0,3.994,1.788,3.994,3.994v9.367h13.057c2.081,0,3.768,1.687,3.768,3.768
					c0,1.759-1.21,3.224-2.84,3.639C457.918,258.626,459.128,260.091,459.128,261.85z"/>
				<path style="fill:#B9DEEF;" d="M445.897,450.528c16.345,0,29.596-13.25,29.596-29.595c0-16.345-13.25-29.595-29.596-29.595
					c-16.345,0-29.595,13.25-29.595,29.595C416.301,437.278,429.552,450.528,445.897,450.528z M452.887,405.098h7.585v24.042h-7.585
					V405.098z M426.665,417.016c0-1.911,1.427-3.473,3.271-3.718c-1.844-0.246-3.271-1.807-3.271-3.718
					c0-2.081,1.687-3.768,3.769-3.768h16.102c0.247,0,0.488,0.027,0.722,0.073c0.077-0.004,0.149-0.023,0.227-0.023
					c2.206,0,3.994,1.788,3.994,3.994v27.575c0,2.206-1.788,3.994-3.994,3.994c-2.206,0-3.994-1.788-3.994-3.994v-9.367h-13.057
					c-2.081,0-3.769-1.687-3.769-3.768c0-1.759,1.21-3.224,2.84-3.639C427.876,420.24,426.665,418.775,426.665,417.016z"/>
			</g>
		</g>
	</g>
</g>
<g id="OBJECTS">
	<g>
		<g>
			<g>
				<path style="fill:#FF5757;" d="M475.219,149.557c0,8.128-6.589,14.717-14.717,14.717H224.053
					c-8.128,0-14.717-6.589-14.717-14.717v-48.075c0-8.128,6.589-14.717,14.717-14.717h236.449c8.128,0,14.717,6.589,14.717,14.717
					V149.557z"/>
				<polygon style="fill:#FF5757;" points="302.994,159.368 291.221,250.611 332.428,157.406 				"/>
			</g>
			<g>
				<g>
					<path style="fill:#D63A3A;" d="M260.621,119.57c-0.186-0.573-0.718-0.962-1.32-0.968l-13.278-0.114l-4.212-12.593
						c-0.191-0.571-0.726-0.956-1.328-0.956c-0.602,0-1.137,0.385-1.328,0.956l-4.212,12.593l-13.278,0.114
						c-0.602,0.006-1.134,0.395-1.32,0.968c-0.186,0.573,0.015,1.201,0.499,1.559l10.674,7.897l-3.994,12.663
						c-0.181,0.575,0.025,1.2,0.512,1.555s1.146,0.356,1.637,0.007l10.808-7.712l10.809,7.712c0.243,0.174,0.529,0.261,0.814,0.261
						c0.289,0,0.578-0.089,0.824-0.268c0.487-0.354,0.694-0.98,0.512-1.555l-3.994-12.663l10.674-7.897
						C260.606,120.771,260.807,120.143,260.621,119.57z"/>
					<path style="fill:#FFA94D;" d="M263.422,118.169c-0.186-0.573-0.718-0.962-1.32-0.968l-13.278-0.114l-4.212-12.593
						c-0.191-0.571-0.726-0.956-1.328-0.956s-1.137,0.385-1.328,0.956l-4.212,12.593l-13.278,0.114
						c-0.602,0.005-1.134,0.395-1.32,0.968c-0.186,0.573,0.015,1.201,0.499,1.559l10.674,7.897l-3.994,12.663
						c-0.181,0.575,0.025,1.2,0.512,1.555s1.146,0.356,1.637,0.007l10.808-7.712l10.808,7.712c0.243,0.174,0.529,0.261,0.814,0.261
						c0.289,0,0.578-0.089,0.824-0.268c0.487-0.354,0.694-0.98,0.512-1.555l-3.994-12.663l10.674-7.897
						C263.407,119.37,263.608,118.742,263.422,118.169z"/>
				</g>
				<g>
					<path style="fill:#D63A3A;" d="M310.995,119.57c-0.186-0.573-0.718-0.962-1.32-0.968l-13.278-0.114l-4.212-12.593
						c-0.191-0.571-0.726-0.956-1.328-0.956c-0.602,0-1.137,0.385-1.328,0.956l-4.212,12.593l-13.278,0.114
						c-0.602,0.006-1.134,0.395-1.32,0.968c-0.186,0.573,0.015,1.201,0.499,1.559l10.674,7.897l-3.994,12.663
						c-0.181,0.575,0.025,1.2,0.512,1.555c0.487,0.354,1.146,0.356,1.637,0.007l10.808-7.712l10.809,7.712
						c0.243,0.174,0.529,0.261,0.814,0.261c0.289,0,0.578-0.089,0.824-0.268c0.487-0.354,0.694-0.98,0.512-1.555l-3.994-12.663
						l10.674-7.897C310.98,120.771,311.181,120.143,310.995,119.57z"/>
					<path style="fill:#FFA94D;" d="M313.797,118.169c-0.186-0.573-0.718-0.962-1.32-0.968l-13.278-0.114l-4.212-12.593
						c-0.191-0.571-0.726-0.956-1.328-0.956s-1.138,0.385-1.328,0.956l-4.212,12.593l-13.278,0.114
						c-0.602,0.005-1.134,0.395-1.32,0.968c-0.186,0.573,0.015,1.201,0.499,1.559l10.674,7.897l-3.994,12.663
						c-0.181,0.575,0.025,1.2,0.512,1.555s1.146,0.356,1.637,0.007l10.808-7.712l10.808,7.712c0.243,0.174,0.529,0.261,0.814,0.261
						c0.289,0,0.578-0.089,0.824-0.268c0.487-0.354,0.693-0.98,0.512-1.555l-3.994-12.663l10.674-7.897
						C313.782,119.37,313.983,118.742,313.797,118.169z"/>
				</g>
				<g>
					<path style="fill:#D63A3A;" d="M361.37,119.57c-0.186-0.573-0.718-0.962-1.32-0.968l-13.278-0.114l-4.212-12.593
						c-0.191-0.571-0.726-0.956-1.328-0.956c-0.602,0-1.137,0.385-1.328,0.956l-4.212,12.593l-13.278,0.114
						c-0.602,0.006-1.134,0.395-1.32,0.968c-0.186,0.573,0.015,1.201,0.499,1.559l10.674,7.897l-3.994,12.663
						c-0.181,0.575,0.025,1.2,0.512,1.555s1.146,0.356,1.637,0.007l10.808-7.712l10.809,7.712c0.243,0.174,0.529,0.261,0.814,0.261
						c0.289,0,0.578-0.089,0.824-0.268c0.487-0.354,0.694-0.98,0.512-1.555l-3.994-12.663l10.674-7.897
						C361.355,120.771,361.556,120.143,361.37,119.57z"/>
					<path style="fill:#FFA94D;" d="M364.171,118.169c-0.186-0.573-0.718-0.962-1.32-0.968l-13.278-0.114l-4.212-12.593
						c-0.191-0.571-0.726-0.956-1.328-0.956s-1.137,0.385-1.328,0.956l-4.212,12.593l-13.278,0.114
						c-0.602,0.005-1.134,0.395-1.32,0.968c-0.186,0.573,0.015,1.201,0.499,1.559l10.674,7.897l-3.994,12.663
						c-0.181,0.575,0.025,1.2,0.512,1.555s1.146,0.356,1.638,0.007l10.808-7.712l10.808,7.712c0.243,0.174,0.529,0.261,0.814,0.261
						c0.289,0,0.578-0.089,0.824-0.268c0.487-0.354,0.693-0.98,0.512-1.555l-3.994-12.663l10.674-7.897
						C364.156,119.37,364.358,118.742,364.171,118.169z"/>
				</g>
				<g>
					<path style="fill:#D63A3A;" d="M411.744,119.57c-0.186-0.573-0.718-0.962-1.32-0.968l-13.278-0.114l-4.212-12.593
						c-0.191-0.571-0.726-0.956-1.328-0.956c-0.603,0-1.137,0.385-1.328,0.956l-4.212,12.593l-13.278,0.114
						c-0.602,0.006-1.134,0.395-1.32,0.968c-0.186,0.573,0.015,1.201,0.499,1.559l10.674,7.897l-3.994,12.663
						c-0.181,0.575,0.025,1.2,0.512,1.555s1.146,0.356,1.637,0.007l10.808-7.712l10.809,7.712c0.243,0.174,0.529,0.261,0.814,0.261
						c0.289,0,0.578-0.089,0.823-0.268c0.487-0.354,0.694-0.98,0.512-1.555l-3.994-12.663l10.674-7.897
						C411.729,120.771,411.93,120.143,411.744,119.57z"/>
					<path style="fill:#FFA94D;" d="M414.546,118.169c-0.186-0.573-0.718-0.962-1.32-0.968l-13.278-0.114l-4.212-12.593
						c-0.191-0.571-0.726-0.956-1.328-0.956s-1.137,0.385-1.328,0.956l-4.212,12.593l-13.278,0.114
						c-0.602,0.005-1.134,0.395-1.32,0.968c-0.186,0.573,0.015,1.201,0.499,1.559l10.674,7.897l-3.994,12.663
						c-0.181,0.575,0.025,1.2,0.512,1.555s1.146,0.356,1.638,0.007l10.808-7.712l10.808,7.712c0.243,0.174,0.529,0.261,0.814,0.261
						c0.289,0,0.578-0.089,0.824-0.268c0.487-0.354,0.693-0.98,0.512-1.555l-3.994-12.663l10.674-7.897
						C414.531,119.37,414.732,118.742,414.546,118.169z"/>
				</g>
				<g>
					<path style="fill:#D63A3A;" d="M462.119,119.57c-0.186-0.573-0.718-0.962-1.32-0.968l-13.278-0.114l-4.212-12.593
						c-0.191-0.571-0.726-0.956-1.328-0.956c-0.603,0-1.137,0.385-1.328,0.956l-4.212,12.593l-13.278,0.114
						c-0.602,0.006-1.134,0.395-1.32,0.968c-0.186,0.573,0.015,1.201,0.499,1.559l10.674,7.897l-3.994,12.663
						c-0.181,0.575,0.025,1.2,0.512,1.555s1.146,0.356,1.637,0.007l10.808-7.712l10.809,7.712c0.243,0.174,0.529,0.261,0.814,0.261
						c0.289,0,0.578-0.089,0.823-0.268c0.487-0.354,0.694-0.98,0.512-1.555l-3.994-12.663l10.674-7.897
						C462.104,120.771,462.305,120.143,462.119,119.57z"/>
					<path style="fill:#FFA94D;" d="M464.921,118.169c-0.186-0.573-0.718-0.962-1.32-0.968l-13.278-0.114l-4.212-12.593
						c-0.191-0.571-0.726-0.956-1.328-0.956s-1.137,0.385-1.328,0.956l-4.212,12.593l-13.278,0.114
						c-0.602,0.005-1.134,0.395-1.32,0.968c-0.186,0.573,0.015,1.201,0.499,1.559l10.674,7.897l-3.994,12.663
						c-0.181,0.575,0.025,1.2,0.512,1.555s1.146,0.356,1.637,0.007l10.808-7.712l10.808,7.712c0.243,0.174,0.529,0.261,0.814,0.261
						c0.289,0,0.578-0.089,0.824-0.268c0.487-0.354,0.694-0.98,0.512-1.555l-3.994-12.663l10.674-7.897
						C464.906,119.37,465.107,118.742,464.921,118.169z"/>
				</g>
			</g>
		</g>
		<rect x="209.952" y="44.152" style="fill:none;" width="262.487" height="37.498"/>
		
			<text transform="matrix(1 0 0 1 218.0368 72.7118)" style="fill:#FF5757; font-family:'Nunito-Black'; font-size:40px; letter-spacing:4;">FEEDBACK</text>
	</g>
	<g>
		<defs>
			<rect id="SVGID_00000010991153762227832600000010109496185664800648_" width="290.948" height="500"/>
		</defs>
		<clipPath id="SVGID_00000153686602377570340310000012014603718896736902_">
			<use xlink:href="#SVGID_00000010991153762227832600000010109496185664800648_"  style="overflow:visible;"/>
		</clipPath>
		<g style="clip-path:url(#SVGID_00000153686602377570340310000012014603718896736902_);">
			<g>
				<g>
					<path style="fill:#22689E;" d="M113.364,340.952c0,0-50.773,45.076-52.949,92.842C58.238,481.561,68.393,530,68.393,530
						h164.651c0,0,11.605-86.114-5.803-128.499s-40.619-84.096-40.619-84.096L113.364,340.952z"/>
					<g>
						<path style="opacity:0.5;fill:#003154;" d="M232.528,419.387c-12.683,18.489-41.165,39.963-65.386,48.961
							c-0.172,24.2-2.419,37.865-7.27,61.653h73.171C233.044,530,241.903,464.259,232.528,419.387z"/>
						<path style="opacity:0.5;fill:#003154;" d="M121.976,355.185c19.665,7.388,41.991,10.056,62.973,11.58
							c9.086,0.66,18.186,0.947,27.272,0.892c-13.365-28.266-25.599-50.252-25.599-50.252l-73.259,23.547
							c0,0-2.843,2.525-7.21,7.009C111.281,350.651,116.517,353.134,121.976,355.185z"/>
					</g>
				</g>
				<g>
					<g>
						<g>
							<path style="fill:none;stroke:#3387C1;stroke-width:1.0911;stroke-miterlimit:10;" d="M111.588,352.837
								c0,0-1.179,2.102-3.103,5.759"/>
							<path style="fill:none;stroke:#3387C1;stroke-width:1.0911;stroke-miterlimit:10;stroke-dasharray:13.1154,13.1154;" d="
								M102.557,370.295c-9.344,19.118-22.907,50.216-25.313,73.959c-2.534,25.014,0.78,55.252,3.171,72.096"/>
							<path style="fill:none;stroke:#3387C1;stroke-width:1.0911;stroke-miterlimit:10;" d="M81.386,522.84
								c0.644,4.085,1.084,6.451,1.084,6.451"/>
						</g>
					</g>
					<g>
						<g>
							<path style="fill:#003154;" d="M111.588,452.757c4.693,1.073,9.351,2.27,14.027,3.405l6.992,1.777l6.981,1.817
								c4.655,1.208,9.296,2.468,13.938,3.72c4.646,1.241,9.271,2.555,13.908,3.829l-0.594,0.003
								c1.199-0.374,2.452-0.851,3.672-1.318c1.223-0.484,2.447-0.973,3.65-1.516c1.21-0.526,2.411-1.077,3.597-1.66
								c1.199-0.556,2.369-1.173,3.544-1.78c1.182-0.593,2.34-1.235,3.501-1.871c1.169-0.622,2.314-1.287,3.452-1.966
								c1.14-0.675,2.292-1.33,3.402-2.056l3.367-2.118l3.303-2.221c1.113-0.724,2.177-1.519,3.255-2.293
								c1.076-0.778,2.172-1.53,3.232-2.331l3.159-2.433l1.589-1.208l1.546-1.261l3.096-2.524c1.038-0.836,2.01-1.747,3.019-2.618
								l3.034-2.612l-2.8,2.862c-0.953,0.935-1.87,1.911-2.854,2.813l-2.94,2.727l-1.471,1.365l-1.52,1.309l-3.065,2.594
								c-1.03,0.856-2.098,1.663-3.146,2.498c-1.056,0.824-2.107,1.656-3.204,2.426l-3.26,2.354l-3.34,2.243
								c-1.108,0.757-2.261,1.444-3.402,2.151c-1.138,0.711-2.285,1.409-3.459,2.064c-1.167,0.664-2.321,1.353-3.521,1.961
								c-1.19,0.625-2.375,1.259-3.592,1.834c-1.203,0.601-2.423,1.171-3.655,1.716c-1.224,0.562-2.474,1.072-3.727,1.577
								c-1.264,0.501-2.511,0.958-3.86,1.372l-0.291,0.089l-0.303-0.087c-4.622-1.324-9.256-2.608-13.87-3.966
								c-4.617-1.346-9.235-2.685-13.839-4.075l-6.907-2.081l-6.896-2.12C120.755,455.684,116.154,454.283,111.588,452.757z"/>
						</g>
						<g>
							<path style="fill:#003154;" d="M176.542,370.554c0.957,7.733,1.394,15.524,1.687,23.316c0.071,1.949,0.101,3.898,0.12,5.848
								c0.018,1.95,0.027,3.9,0.007,5.851c-0.025,3.901-0.117,7.803-0.291,11.702c-0.072,1.951-0.194,3.899-0.303,5.848
								c-0.131,1.948-0.252,3.897-0.444,5.841c-0.347,3.891-0.78,7.775-1.314,11.647c-0.253,1.938-0.555,3.87-0.859,5.801
								c-0.317,1.929-0.648,3.857-1.015,5.779c-0.369,1.921-0.748,3.841-1.181,5.75c-0.396,1.917-0.895,3.812-1.345,5.718
								l-1.489-1.237c5.033-2.4,10.099-4.727,15.156-7.077l-0.563,0.658c0.484-1.703,0.925-3.468,1.339-5.219
								c0.412-1.757,0.798-3.521,1.165-5.29c0.727-3.539,1.363-7.1,1.92-10.672c0.282-1.786,0.536-3.576,0.775-5.369l0.666-5.384
								c0.202-1.797,0.407-3.595,0.572-5.396c0.183-1.8,0.318-3.605,0.458-5.409c0.128-1.805,0.245-3.611,0.329-5.419
								c0.103-1.807,0.147-3.617,0.209-5.426c0.092-3.62,0.079-7.241,0.037-10.864c-0.069-3.622-0.197-7.246-0.46-10.863
								c-0.107-1.811-0.281-3.616-0.438-5.424c-0.143-1.81-0.371-3.61-0.553-5.418c0.279,1.794,0.605,3.583,0.845,5.384
								c0.253,1.799,0.483,3.603,0.669,5.411c0.409,3.613,0.684,7.242,0.9,10.875c0.092,1.817,0.192,3.635,0.215,5.456
								c0.057,1.82,0.053,3.64,0.066,5.461c-0.017,1.82-0.016,3.642-0.076,5.462c-0.039,1.821-0.113,3.64-0.197,5.46
								c-0.095,1.819-0.187,3.638-0.327,5.455c-0.122,1.818-0.284,3.633-0.443,5.448c-0.358,3.627-0.82,7.243-1.348,10.85
								c-0.533,3.606-1.145,7.201-1.85,10.781c-0.355,1.789-0.731,3.575-1.133,5.356c-0.407,1.785-0.83,3.547-1.325,5.341
								l-0.124,0.451l-0.439,0.207c-5.042,2.38-10.073,4.784-15.139,7.113l-2.019,0.928l0.529-2.166
								c0.459-1.879,0.968-3.747,1.375-5.64c0.443-1.885,0.834-3.781,1.214-5.68c0.378-1.899,0.722-3.807,1.051-5.716
								c0.317-1.912,0.632-3.825,0.898-5.745c0.56-3.837,1.022-7.69,1.397-11.552c0.387-3.861,0.736-7.728,0.989-11.603
								c0.266-3.874,0.453-7.755,0.572-11.639c0.128-3.884,0.164-7.771,0.186-11.659c0.022-3.888-0.023-7.778-0.134-11.667
								C176.957,378.329,176.808,374.439,176.542,370.554z"/>
						</g>
						<g>
							<path style="fill:#003154;" d="M167.944,468.354c0,0,0.007,0.243,0.02,0.699c0.014,0.455,0.038,1.125,0.032,1.981
								c0.005,1.712,0.022,4.155-0.094,7.076c-0.035,1.463-0.109,3.046-0.209,4.719c-0.092,1.673-0.179,3.439-0.308,5.263
								c-0.169,1.821-0.344,3.702-0.522,5.614c-0.208,1.909-0.35,3.855-0.637,5.786c-0.273,1.932-0.547,3.864-0.816,5.765
								c-0.139,0.95-0.276,1.892-0.412,2.823c-0.174,0.925-0.347,1.84-0.516,2.739c-0.335,1.799-0.693,3.531-1.027,5.173
								c-0.34,1.641-0.619,3.199-1.016,4.61c-0.717,2.838-1.398,5.18-1.835,6.825c-0.465,1.638-0.732,2.573-0.732,2.573
								s0.146-0.964,0.402-2.65c0.285-1.679,0.635-4.086,1.154-6.947c0.289-1.424,0.45-2.997,0.666-4.65
								c0.21-1.654,0.424-3.399,0.682-5.196c0.123-0.9,0.247-1.814,0.374-2.74c0.096-0.93,0.192-1.872,0.29-2.821
								c0.203-1.896,0.41-3.822,0.616-5.748c0.251-1.92,0.359-3.857,0.532-5.756c0.168-1.899,0.333-3.768,0.493-5.577
								c0.109-1.813,0.253-3.562,0.38-5.223c0.137-1.66,0.246-3.23,0.315-4.681c0.072-1.451,0.169-2.78,0.254-3.959
								c0.063-1.177,0.118-2.203,0.164-3.047c0.093-1.696,0.146-2.665,0.146-2.665L167.944,468.354z"/>
						</g>
					</g>
				</g>
			</g>
			<g>
				<g>
					<g>
						<g>
							<path style="fill:#001433;" d="M116.215,83.476c0,0,18.714-19.089,51.652-4.491c32.937,14.597,12.351,77.103,28.446,97.689
								c12.427,15.895,37.054,39.3,7.486,71.115s-74.109-15.346-72.612-67.746C132.684,127.642,116.215,83.476,116.215,83.476z"/>
							<path style="fill:none;stroke:#001433;stroke-width:1.1229;stroke-miterlimit:10;" d="M116.215,84.892
								c0,0,20.784-22.066,53.181-4.455c40.016,21.753,9.152,74.616,26.917,95.114c14.597,16.843,40.797,34.434,10.079,72.321
								c-27.615,34.059-76.303-15.221-74.762-67.197C133.172,128.699,116.215,84.892,116.215,84.892z"/>
						</g>
						<g>
							<g>
								<path style="fill:#FFB199;" d="M105.361,158.894c0,0,17.404,54.459-6.737,52.775s-48.283,0.561-34.247,42.107
									c14.036,41.546,143.726,5.053,143.726-20.773s-17.404-29.756-43.792-19.65c-26.387,10.106-16.843-40.984-16.843-40.984
									L105.361,158.894z"/>
								<path style="fill:#F2957C;" d="M111.394,194.954c6.924,6.036,14.262,11.383,23.691,13.977
									c5.211,1.433,10.429,2.215,15.625,2.462c-8.673-9.934-3.242-39.025-3.242-39.025l-42.107-13.474
									C105.361,158.894,111.94,179.486,111.394,194.954z"/>
							</g>
							<g>
								<g>
									<g>
										<path style="fill:#003154;" d="M77.851,125.77l-1.684,48.283c0,0,34.247,17.966,34.247,16.281s7.299-44.914,7.299-44.914
											L77.851,125.77z"/>
										<path style="fill:#F2957C;" d="M95.618,145.439c0,0-19.726,1.32-10.106,18.527c10.14,18.137,20.783,6.19,20.783,6.19
											L95.618,145.439z"/>
									</g>
									<path style="fill:#003154;" d="M89.267,148.227c0,0-0.749,13.849,13.474,19.837s-6.737-25.452-6.737-25.452L89.267,148.227
										z"/>
								</g>
								<path style="fill:#FFB199;" d="M113.595,102.19c0,0,56.787-22.09,58.576,48.283c1.684,66.249-65.126,48.283-77.477,1.123
									C83.348,108.276,113.595,102.19,113.595,102.19z"/>
							</g>
						</g>
					</g>
					<g>
						<path style="fill:#FFA94D;" d="M98.624,220.09c0,0,13.474,21.709,40.423,20.96c26.949-0.749,33.686-31.44,33.686-31.44
							s26.949-10.106,34.809,9.357s-1.123,125.386-1.123,125.386s-38.177,16.094-86.086,4.117c0,0-63.629-81.595-59.886-116.403
							S98.624,220.09,98.624,220.09z"/>
						<path style="fill:#EF8E35;" d="M208.403,280.011c-21.576-1.119-42.835-2.213-63.851-7.704
							c-20.751-5.422-40.05-13.928-58.242-25.262c-8.696-5.418-17.155-11.193-25.598-16.991c-0.099,0.651-0.191,1.317-0.266,2.014
							c-3.743,34.809,59.886,116.403,59.886,116.403c47.909,11.977,86.086-4.117,86.086-4.117s2.724-32.13,3.859-64.25
							C209.653,280.073,209.028,280.043,208.403,280.011z"/>
					</g>
				</g>
				<g>
					<path style="fill:#FFFFFF;" d="M130.064,167.69l33.686-4.866C163.75,162.824,155.89,181.539,130.064,167.69z"/>
					<g>
						<path style="fill:#E5826C;" d="M147.281,136.624c0.317,0.799,0.665,1.571,0.99,2.341c0.35,0.763,0.677,1.524,1.053,2.26
							c0.353,0.744,0.73,1.472,1.133,2.178c0.385,0.715,0.806,1.405,1.251,2.073c0.428,0.678,0.897,1.323,1.396,1.937
							c0.257,0.301,0.497,0.614,0.761,0.906c0.259,0.297,0.533,0.579,0.813,0.853c0.565,0.544,1.151,1.06,1.778,1.53
							c0.317,0.229,0.642,0.447,0.973,0.66c0.323,0.229,0.677,0.401,1.02,0.604l1.133,0.67l-0.917,0.7
							c-0.458,0.35-0.931,0.682-1.403,1.014c-0.473,0.332-0.938,0.673-1.424,0.99c-0.959,0.649-1.931,1.282-2.943,1.869
							c0.735-0.91,1.509-1.774,2.297-2.623c0.388-0.431,0.796-0.839,1.196-1.256c0.401-0.416,0.802-0.832,1.217-1.231l0.217,1.37
							c-0.416-0.159-0.85-0.293-1.255-0.489c-0.42-0.169-0.807-0.399-1.2-0.623c-0.383-0.235-0.769-0.475-1.13-0.743
							c-0.373-0.257-0.713-0.553-1.046-0.855c-0.656-0.613-1.296-1.248-1.837-1.958c-0.54-0.71-1.037-1.445-1.484-2.206
							c-0.426-0.773-0.8-1.568-1.14-2.372c-0.324-0.812-0.59-1.642-0.821-2.476c-0.207-0.843-0.396-1.685-0.499-2.544
							C147.292,138.352,147.243,137.486,147.281,136.624z"/>
					</g>
					<g>
						<path style="fill:#001433;" d="M148.404,130.262c0,0,0.068-0.479,0.303-1.281c0.236-0.801,0.619-1.939,1.281-3.22
							c0.646-1.29,1.539-2.749,2.837-4.121c0.637-0.692,1.395-1.352,2.273-1.92c0.862-0.585,1.898-1.037,3.017-1.28
							c1.115-0.24,2.338-0.231,3.423,0.094c1.109,0.27,2.05,0.832,2.852,1.422c0.791,0.612,1.426,1.294,1.974,1.962
							c0.248,0.348,0.489,0.686,0.722,1.013c0.224,0.331,0.391,0.675,0.575,0.99c0.381,0.622,0.625,1.242,0.85,1.781
							c0.244,0.528,0.389,1.019,0.509,1.42c0.243,0.8,0.344,1.267,0.344,1.267s-0.352-0.339-0.901-0.947
							c-0.269-0.308-0.606-0.671-0.993-1.076c-0.387-0.405-0.807-0.869-1.291-1.333c-0.464-0.487-1.015-0.941-1.565-1.43
							c-0.572-0.457-1.179-0.901-1.818-1.271c-0.324-0.172-0.653-0.323-0.98-0.471c-0.34-0.09-0.666-0.247-1.006-0.283
							c-0.672-0.145-1.349-0.142-2.033,0.019c-0.686,0.133-1.382,0.409-2.056,0.794c-0.672,0.379-1.333,0.828-1.946,1.333
							c-0.62,0.492-1.202,1.026-1.747,1.55c-0.542,0.528-1.059,1.043-1.523,1.537c-0.924,0.992-1.692,1.86-2.236,2.474
							C148.718,129.907,148.404,130.262,148.404,130.262z"/>
					</g>
					<g>
						<path style="fill:#001433;" d="M138.673,132.882c0,0-0.505-0.296-1.377-0.777c-0.876-0.475-2.128-1.124-3.634-1.795
							c-1.519-0.644-3.292-1.32-5.209-1.73c-0.956-0.208-1.944-0.358-2.94-0.4c-0.996-0.063-1.997-0.005-2.98,0.146
							c-0.987,0.135-1.944,0.419-2.873,0.756c-0.466,0.165-0.903,0.402-1.36,0.583c-0.435,0.238-0.865,0.473-1.287,0.704
							c-0.411,0.266-0.815,0.529-1.211,0.785c-0.383,0.288-0.759,0.569-1.124,0.843c-0.368,0.277-0.691,0.593-1.035,0.867
							c-0.35,0.269-0.661,0.562-0.955,0.851c-0.602,0.564-1.157,1.094-1.623,1.595c-0.477,0.491-0.912,0.915-1.236,1.292
							c-0.674,0.736-1.1,1.147-1.1,1.147s0.168-0.553,0.534-1.505c0.174-0.481,0.415-1.051,0.75-1.679
							c0.161-0.319,0.333-0.659,0.514-1.017c0.205-0.345,0.439-0.696,0.675-1.071c0.454-0.764,1.065-1.519,1.724-2.313
							c0.36-0.376,0.729-0.762,1.107-1.156c0.406-0.371,0.846-0.725,1.285-1.099c0.464-0.345,0.958-0.672,1.46-1.001
							c0.532-0.284,1.055-0.608,1.629-0.843c1.134-0.505,2.362-0.873,3.618-1.067c1.256-0.174,2.534-0.227,3.758-0.068
							c1.229,0.118,2.403,0.411,3.487,0.787c1.093,0.358,2.079,0.851,2.984,1.342c0.899,0.506,1.694,1.06,2.397,1.601
							c1.41,1.076,2.414,2.154,3.07,2.933C138.374,132.377,138.673,132.882,138.673,132.882z"/>
					</g>
					<path style="fill:#001433;" d="M134.811,145.652c0.428,2.757-0.158,5.137-1.308,5.316c-1.15,0.178-2.429-1.913-2.857-4.67
						c-0.428-2.758,0.158-5.137,1.308-5.316C133.104,140.804,134.383,142.894,134.811,145.652z"/>
					<path style="fill:#001433;" d="M166.414,139.986c0.428,2.757-0.158,5.137-1.308,5.316c-1.15,0.178-2.429-1.913-2.857-4.67
						c-0.427-2.757,0.158-5.137,1.308-5.316C164.708,135.138,165.987,137.229,166.414,139.986z"/>
					<g>
						<path style="fill:#E5826C;" d="M133.058,172.556c0,0,1.868,0.812,4.657,1.823c1.399,0.497,3.031,1.04,4.795,1.491
							c0.877,0.248,1.801,0.401,2.725,0.594c0.929,0.153,1.876,0.295,2.821,0.327c0.944,0.086,1.883,0.061,2.801-0.001
							c0.907-0.118,1.812-0.198,2.646-0.449c0.427-0.095,0.827-0.245,1.223-0.384c0.407-0.118,0.775-0.302,1.143-0.466
							c0.379-0.147,0.702-0.372,1.041-0.55c0.347-0.168,0.646-0.389,0.944-0.589c0.61-0.384,1.094-0.843,1.57-1.207
							c0.418-0.42,0.83-0.759,1.127-1.078c0.589-0.641,0.952-1.008,0.952-1.008s-0.198,0.461-0.591,1.271
							c-0.205,0.399-0.504,0.854-0.848,1.387c-0.392,0.489-0.797,1.097-1.385,1.624c-0.548,0.569-1.219,1.123-1.994,1.613
							c-0.39,0.241-0.787,0.504-1.229,0.702c-0.429,0.23-0.889,0.414-1.367,0.573c-0.947,0.346-1.966,0.585-3.011,0.718
							c-1.045,0.1-2.112,0.156-3.166,0.084c-2.11-0.15-4.158-0.615-5.98-1.275c-0.921-0.302-1.771-0.691-2.573-1.057
							c-0.798-0.374-1.532-0.767-2.191-1.158C134.516,174.003,133.058,172.556,133.058,172.556z"/>
					</g>
				</g>
			</g>
			<g>
				<path style="fill:#003154;" d="M70.552,85.909c0,0,12.913-17.404,46.599-8.422s14.036,69.056-21.334,76.916
					s-8.79,26.582,9.175,17.599c0,0,26.868,27.053,5.983,48.088c-17.624,17.751-22.644-10.667-37.803-5.614
					c-15.159,5.053-14.41,24.142-5.427,47.722c0,0-40.984-2.807-37.616-39.3c3.369-36.493,40.984-38.177,33.124-83.092
					C55.394,94.891,70.552,85.909,70.552,85.909z"/>
				<g>
					<path style="fill:none;stroke:#003154;stroke-width:1.1229;stroke-miterlimit:10;" d="M67.745,262.198
						c0,0-48.157-5.365-42.631-41.594s43.175-35.681,37.99-80.983s10.48-53.37,10.48-53.37s13.922-16.609,47.016-5.645"/>
					<path style="fill:none;stroke:#003154;stroke-width:1.1229;stroke-miterlimit:10;" d="M93.384,158.333
						c0,0,40.423-7.111,40.423-58.763"/>
				</g>
			</g>
			<g>
				<g>
					<g>
						<path style="fill:#FFB199;" d="M277.72,174.615c-2.246-1.123-6.176,4.491-6.176,4.491s5.053-10.106,2.246-11.229
							c-2.807-1.123-5.614,6.737-5.614,6.737s2.807-9.544-0.561-10.106c-3.368-0.561-7.86,12.352-7.86,12.352
							s9.544-29.194,5.614-29.194c-1.196,0-5.618,8.325-11.188,19.9c-1.6-2.228-4.918-4.358-9.585,5.364
							c-3.348,6.976-2.258,12.286-0.315,15.865c-10.776,23.645-21.581,48.7-21.581,48.7s21.334,26.387,30.879,8.421
							C263.123,227.95,279.966,175.737,277.72,174.615z"/>
						<path style="fill:#F2957C;" d="M233.62,212.554c-6.256,14.125-10.92,24.941-10.92,24.941s21.334,26.387,30.879,8.421
							c3.37-6.344,7.651-16.96,11.68-28.088C254.644,216.369,244.022,214.789,233.62,212.554z"/>
					</g>
					<g>
						<g>
							<path style="fill:#E5826C;" d="M247.337,168.394c0.694-1.028,1.655-1.915,2.857-2.398c0.606-0.199,1.272-0.342,1.926-0.227
								c0.163,0.024,0.33,0.041,0.492,0.072l0.465,0.167c0.322,0.097,0.602,0.263,0.874,0.446c0.285,0.166,0.555,0.349,0.783,0.579
								c0.234,0.221,0.498,0.42,0.707,0.661c0.4,0.495,0.86,0.959,1.182,1.505c0.731,1.057,1.328,2.128,1.953,3.213
								c0.607,1.089,1.196,2.192,1.741,3.327c0.27,0.57,0.531,1.147,0.753,1.751c0.215,0.61,0.431,1.22,0.478,1.963
								c0.009,0.357,0.02,0.828-0.366,1.274c-0.415,0.434-0.954,0.448-1.32,0.424c-0.752-0.092-1.355-0.345-1.948-0.612
								c-1.167-0.553-2.242-1.208-3.296-1.887l0.512-0.957c0.458,0.225,0.845,0.453,1.23,0.726c0.391,0.255,0.738,0.568,1.095,0.865
								c0.323,0.334,0.681,0.637,0.964,1.009c0.295,0.361,0.594,0.717,0.825,1.125l0.37,0.592l0.292,0.635l0.279,0.64l0.188,0.671
								l0.186,0.67c0.04,0.227,0.06,0.458,0.091,0.687c0.046,0.459,0.143,0.914,0.099,1.373c-0.017,0.458-0.018,0.916-0.051,1.37
								l-0.236,1.342c-0.055,0.452-0.205,0.879-0.342,1.309l-0.425,1.28l-0.571,1.217c-0.198,0.401-0.364,0.816-0.587,1.202
								c-0.457,0.766-0.93,1.52-1.399,2.271c0.388-0.801,0.771-1.599,1.17-2.385c0.189-0.398,0.321-0.822,0.484-1.23l0.464-1.232
								l0.317-1.273c0.112-0.421,0.238-0.839,0.268-1.273l0.163-1.287c0.01-0.43-0.012-0.86-0.015-1.288
								c0.023-0.431-0.092-0.847-0.154-1.267c-0.038-0.209-0.065-0.42-0.112-0.626l-0.201-0.602l-0.198-0.6l-0.279-0.566
								l-0.276-0.566l-0.349-0.525c-0.214-0.363-0.496-0.677-0.769-0.997c-0.261-0.33-0.596-0.595-0.893-0.891
								c-0.33-0.262-0.653-0.532-1.006-0.761c-0.338-0.239-0.722-0.454-1.06-0.619l0.512-0.957c1.036,0.657,2.094,1.285,3.176,1.787
								c0.536,0.238,1.097,0.464,1.582,0.522c0.239,0.02,0.385-0.03,0.407-0.063c0.047-0.022,0.103-0.231,0.084-0.479
								c-0.022-0.5-0.202-1.086-0.398-1.642c-0.206-0.562-0.441-1.123-0.688-1.682c-0.502-1.115-1.056-2.218-1.631-3.312
								l-0.858-1.645c-0.283-0.561-0.597-1.069-0.908-1.592c-0.285-0.543-0.691-0.984-1.044-1.473
								c-0.186-0.236-0.416-0.423-0.622-0.639c-0.201-0.226-0.436-0.4-0.683-0.559c-0.236-0.178-0.481-0.34-0.756-0.436
								l-0.398-0.183l-0.423-0.095c-0.567-0.15-1.165-0.069-1.742,0.069C249.16,166.68,248.142,167.455,247.337,168.394z"/>
						</g>
						<g>
							<path style="fill:#E5826C;" d="M259.588,183.095c0.307,0.367,0.668,0.686,1.06,0.946c0.207,0.11,0.396,0.254,0.619,0.322
								c0.211,0.099,0.435,0.146,0.659,0.178c0.221,0.047,0.449-0.004,0.668-0.006c0.21-0.08,0.434-0.105,0.627-0.22
								c0.187-0.127,0.396-0.208,0.562-0.365l0.497-0.463l0.42-0.547c0.15-0.173,0.275-0.367,0.387-0.573l0.353-0.601
								c0.128-0.193,0.202-0.422,0.306-0.631c0.186-0.431,0.407-0.843,0.55-1.296l0.476-1.331l0.759,0.315
								c-0.621,1.422-1.196,2.887-1.668,4.358c-0.229,0.737-0.432,1.482-0.549,2.219c-0.055,0.367-0.099,0.733-0.091,1.074
								c0.003,0.339,0.083,0.653,0.195,0.794c0.019,0.02,0.082,0.081,0.058,0.059l0.123,0.067c-0.001-0.015-0.009-0.023-0.017-0.021
								c0.023-0.006,0.124,0.004,0.241-0.064c0.239-0.108,0.515-0.345,0.761-0.603c0.497-0.527,0.947-1.152,1.374-1.789
								c0.846-1.283,1.598-2.667,2.284-4.051l0.99,0.393c-0.47,1.431-0.877,2.912-1.176,4.39c-0.153,0.738-0.284,1.483-0.336,2.22
								c-0.028,0.368-0.034,0.735,0,1.085c0.033,0.347,0.113,0.688,0.265,0.913c0.081,0.104,0.163,0.188,0.28,0.221
								c0.006,0.005,0.107,0.031,0.035,0.023l0.144,0.004l0.288,0.008c0.13-0.065,0.243-0.066,0.391-0.148
								c0.141-0.097,0.301-0.15,0.431-0.279c0.552-0.445,1.04-1.034,1.462-1.661c0.851-1.257,1.538-2.639,2.161-4.045
								c-0.448,1.475-1.038,2.908-1.8,4.271c-0.191,0.341-0.405,0.671-0.634,0.995c-0.239,0.319-0.496,0.628-0.812,0.9
								c-0.139,0.15-0.345,0.247-0.517,0.371c-0.18,0.116-0.458,0.184-0.686,0.25l-0.288,0.007l-0.144,0.003
								c-0.168-0.012-0.156-0.032-0.242-0.049c-0.258-0.066-0.481-0.247-0.637-0.44c-0.3-0.403-0.396-0.839-0.463-1.248
								c-0.061-0.413-0.073-0.818-0.064-1.218c0.016-0.8,0.114-1.58,0.234-2.355c0.27-1.544,0.642-3.045,1.091-4.548l0.989,0.393
								c-0.692,1.451-1.444,2.847-2.319,4.206c-0.441,0.677-0.913,1.34-1.507,1.954c-0.303,0.303-0.622,0.607-1.102,0.831
								c-0.233,0.113-0.539,0.193-0.903,0.138c-0.103-0.023-0.207-0.055-0.303-0.095l-0.135-0.076
								c-0.196-0.117-0.265-0.213-0.377-0.335c-0.363-0.5-0.404-1.008-0.419-1.448c-0.004-0.448,0.046-0.868,0.121-1.277
								c0.152-0.817,0.387-1.591,0.645-2.353c0.519-1.523,1.16-2.975,1.883-4.404l0.759,0.315l-0.56,1.347
								c-0.169,0.454-0.422,0.88-0.639,1.316c-0.12,0.214-0.207,0.441-0.353,0.643l-0.406,0.618
								c-0.243,0.426-0.623,0.776-0.944,1.148l-0.595,0.47c-0.197,0.156-0.451,0.241-0.672,0.361
								c-0.229,0.11-0.499,0.128-0.742,0.192c-0.255-0.012-0.517,0.018-0.76-0.054c-0.248-0.056-0.486-0.13-0.704-0.253
								c-0.23-0.095-0.421-0.257-0.62-0.396C260.179,183.856,259.853,183.494,259.588,183.095z"/>
						</g>
					</g>
				</g>
				<g>
					<g>
						<g>
							<path style="fill:#FFB199;" d="M53.709,249.285c0,0,37.429,107.046,70.74,119.772l16.469-30.692
								c0,0-40.049-93.197-54.646-104.052C71.675,223.459,53.709,249.285,53.709,249.285z"/>
							<path style="fill:#F2957C;" d="M90.587,293.339c8.563-4.155,15.621-10.101,21.472-17.221
								c-9.871-19.651-19.899-37.427-25.786-41.805c-14.597-10.854-32.563,14.971-32.563,14.971s8.071,23.077,20.049,49.074
								C79.513,297.444,85.159,295.972,90.587,293.339z"/>
						</g>
						<path style="fill:#FFA94D;" d="M87.77,220.09c0,0-19.089-20.96-33.686,1.497s11.229,68.869,11.229,68.869
							s24.703-2.994,46.786-24.329C112.098,266.128,97.501,230.57,87.77,220.09z"/>
					</g>
					<g>
						<g>
							<g>
								<path style="fill:#DDD3D3;" d="M276.808,347.549c0.493,3.061-1.588,5.943-4.65,6.436l-79.077,12.744
									c-3.061,0.493-5.943-1.588-6.436-4.65l-19.176-118.985c-0.493-3.061,1.588-5.943,4.65-6.436l79.077-12.744
									c3.061-0.493,5.943,1.588,6.436,4.65L276.808,347.549z"/>
								<path style="fill:#A39D9C;" d="M276.188,348.407l-79.077,12.744c-3.061,0.493-5.943-1.588-6.436-4.649l-19.176-118.985
									c-0.037-0.23-0.032-0.455-0.041-0.682c-2.687,0.777-4.445,3.429-3.989,6.26l19.176,118.985
									c0.493,3.061,3.375,5.143,6.436,4.65l79.077-12.744c2.831-0.456,4.797-2.959,4.69-5.754
									C276.63,348.295,276.418,348.37,276.188,348.407z"/>
							</g>
							<g>
								<path style="fill:#FFFFFF;" d="M224.39,278.148c0.29-5.651,2.255-7.858,2.281-7.887l-0.617-0.586l-0.612-0.591
									c-0.131,0.136-2.489,2.69-2.765,9.186c-0.04,0.006-0.079,0.007-0.119,0.013c-6.34,1.022-10.652,6.99-9.63,13.331
									c1.022,6.34,6.99,10.652,13.331,9.63c6.34-1.022,10.652-6.99,9.63-13.331C234.966,282.19,230.01,278.134,224.39,278.148z"/>
								<path style="fill:#FFFFFF;" d="M222.787,273.626c0,0-0.848-7.984-11.454-2.982
									C211.333,270.644,215.817,278.042,222.787,273.626z"/>
							</g>
						</g>
						<g>
							<path style="fill:#FFB199;" d="M186.956,265.753c0,0,46.786,7.86,2.62-6.363c0,0-11.977-5.24-27.697,7.111
								c-14.154,11.121-50.33,56.021-57.859,85.121c8.89,11.481,18.177,19.486,26.419,18.557
								c18.229-2.054,48.657-83.84,48.657-83.84s44.54,18.714,2.994-6.737c0,0,63.629,20.96,4.117-7.111
								C186.207,272.491,243.473,285.965,186.956,265.753z"/>
						</g>
					</g>
				</g>
			</g>
		</g>
	</g>
</g>
</svg>
