<?xml version="1.0" encoding="utf-8"?>
<!-- Generator: Adobe Illustrator 27.5.0, SVG Export Plug-In . SVG Version: 6.00 Build 0)  -->
<svg version="1.1" xmlns="http://www.w3.org/2000/svg" xmlns:xlink="http://www.w3.org/1999/xlink" x="0px" y="0px"
	 viewBox="0 0 500 500" style="enable-background:new 0 0 500 500;" xml:space="preserve">
<g id="Background_Simple">
	<g>
		<path style="fill:#92E3A9;" d="M397.661,111.384c-13.697-10.135-28.768-18.552-44.612-26.92
			C317.8,65.848,279.514,48.82,239.659,43.632c-10.066-1.31-20.292-1.784-30.407-0.738C133.466,50.734,43.96,195.12,44.613,257.84
			c0.653,62.72,34.019,155.008,138.529,187.59c104.51,32.582,194.67-4.005,243.016-75.871
			c42.125-62.618,51.418-158.157,7.043-222.143C423.029,132.749,410.997,121.252,397.661,111.384z"/>
		<path style="opacity:0.7;fill:#FFFFFF;" d="M397.661,111.384c-13.697-10.135-28.768-18.552-44.612-26.92
			C317.8,65.848,279.514,48.82,239.659,43.632c-10.066-1.31-20.292-1.784-30.407-0.738C133.466,50.734,43.96,195.12,44.613,257.84
			c0.653,62.72,34.019,155.008,138.529,187.59c104.51,32.582,194.67-4.005,243.016-75.871
			c42.125-62.618,51.418-158.157,7.043-222.143C423.029,132.749,410.997,121.252,397.661,111.384z"/>
	</g>
</g>
<g id="Leaves">
	<g>
		<path style="fill:#92E3A9;" d="M246.674,83.296l-6.503-1.5c-0.269-0.062-0.437-0.331-0.375-0.6c0.062-0.269,0.332-0.437,0.6-0.375
			l5.575,1.286c-0.969-1.623-1.956-3.179-2.949-4.666l-7.05-1.356c-0.271-0.052-0.449-0.314-0.397-0.585
			c0.053-0.271,0.318-0.444,0.585-0.397l6.073,1.168c-1.277-1.862-2.554-3.602-3.804-5.223c-0.02-0.003-0.04-0.003-0.059-0.009
			l-5.851-1.769c-0.265-0.08-0.414-0.359-0.334-0.623c0.08-0.264,0.362-0.413,0.623-0.334l4.561,1.379
			c-3.187-4.012-6.121-7.175-8.281-9.355c0.497,3.428,2.093,13.216,4.79,18.608c2.904,5.809,13.036,8.64,15.454,9.242
			C248.474,86.501,247.586,84.867,246.674,83.296z"/>
		<path style="fill:#92E3A9;" d="M236.456,66.982l-0.476-3.429c-0.038-0.274,0.153-0.526,0.426-0.564
			c0.273-0.042,0.526,0.153,0.564,0.426l0.68,4.898c0.006,0.041-0.003,0.079-0.007,0.118c1.482,1.84,3.024,3.869,4.574,6.068
			l0.839-5.512c0.041-0.273,0.296-0.462,0.569-0.419c0.273,0.041,0.461,0.296,0.419,0.569l-0.952,6.258
			c-0.013,0.084-0.051,0.155-0.098,0.218c1.354,1.97,2.705,4.073,4.021,6.293l0.939-5.983c0.044-0.273,0.296-0.458,0.572-0.417
			c0.273,0.043,0.459,0.299,0.417,0.572l-1.089,6.938c-0.011,0.071-0.038,0.136-0.076,0.195c0.791,1.378,1.566,2.802,2.317,4.265
			c0.717-2.794,2.472-12.062-3.542-19.002c-6.328-7.301-15.23-9.011-17.221-9.311C231.179,61.005,233.676,63.64,236.456,66.982z"/>
	</g>
	<g>
		<path style="fill:#92E3A9;" d="M96.9,121.685l1.495,6.504c0.062,0.269-0.106,0.537-0.375,0.599
			c-0.269,0.062-0.538-0.107-0.599-0.375l-1.281-5.576c-1.035,1.581-2.004,3.149-2.907,4.693l1.864,6.933
			c0.072,0.267-0.087,0.541-0.353,0.613c-0.267,0.071-0.539-0.092-0.613-0.353l-1.606-5.973c-1.116,1.963-2.122,3.872-3.034,5.705
			c0.006,0.019,0.015,0.037,0.018,0.057l0.968,6.035c0.044,0.273-0.142,0.529-0.414,0.573c-0.273,0.044-0.53-0.145-0.573-0.414
			l-0.755-4.704c-2.215,4.62-3.776,8.642-4.791,11.538c2.865-1.946,10.969-7.662,14.64-12.445c3.954-5.152,2.069-15.502,1.553-17.94
			C98.995,118.664,97.915,120.178,96.9,121.685z"/>
		<path style="fill:#92E3A9;" d="M86.698,138.008l-2.876,1.928c-0.229,0.154-0.54,0.093-0.694-0.137
			c-0.157-0.227-0.093-0.54,0.137-0.694l4.107-2.754c0.034-0.023,0.072-0.032,0.109-0.045c1.007-2.138,2.157-4.411,3.457-6.767
			l-5.324,1.656c-0.263,0.083-0.545-0.064-0.626-0.329c-0.082-0.264,0.065-0.544,0.329-0.626l6.045-1.881
			c0.081-0.025,0.161-0.022,0.239-0.007c1.179-2.079,2.48-4.214,3.901-6.369l-5.791,1.772c-0.264,0.08-0.541-0.066-0.625-0.332
			c-0.081-0.264,0.068-0.543,0.332-0.625l6.716-2.055c0.068-0.021,0.139-0.026,0.209-0.017c0.894-1.314,1.835-2.633,2.822-3.949
			c-2.826,0.577-11.928,3.052-15.539,11.496c-3.799,8.883-1.444,17.637-0.842,19.559C83.63,145.368,84.908,141.97,86.698,138.008z"
			/>
	</g>
	<g>
		<path style="fill:#92E3A9;" d="M319.966,363.214l1.495,6.504c0.062,0.269-0.106,0.538-0.375,0.6
			c-0.269,0.062-0.538-0.108-0.599-0.375l-1.281-5.576c-1.035,1.581-2.004,3.149-2.907,4.693l1.864,6.933
			c0.072,0.267-0.087,0.541-0.353,0.613c-0.267,0.071-0.539-0.092-0.613-0.353l-1.606-5.973c-1.116,1.963-2.122,3.872-3.034,5.705
			c0.006,0.019,0.015,0.037,0.018,0.057l0.968,6.035c0.044,0.273-0.142,0.529-0.414,0.573c-0.273,0.043-0.53-0.145-0.573-0.414
			l-0.755-4.704c-2.215,4.62-3.776,8.642-4.791,11.538c2.865-1.946,10.969-7.662,14.64-12.445c3.954-5.152,2.069-15.502,1.553-17.94
			C322.061,360.194,320.981,361.708,319.966,363.214z"/>
		<path style="fill:#92E3A9;" d="M309.764,379.538l-2.876,1.928c-0.229,0.154-0.54,0.092-0.693-0.137
			c-0.157-0.227-0.093-0.54,0.137-0.694l4.107-2.754c0.034-0.023,0.072-0.032,0.109-0.045c1.007-2.138,2.157-4.411,3.457-6.767
			l-5.324,1.656c-0.263,0.082-0.545-0.064-0.626-0.329c-0.082-0.264,0.065-0.544,0.329-0.626l6.044-1.881
			c0.081-0.025,0.161-0.022,0.239-0.008c1.179-2.079,2.48-4.214,3.901-6.368l-5.791,1.772c-0.264,0.08-0.541-0.066-0.625-0.332
			c-0.08-0.264,0.068-0.543,0.332-0.625l6.716-2.055c0.068-0.021,0.139-0.026,0.209-0.017c0.894-1.314,1.835-2.633,2.822-3.949
			c-2.826,0.577-11.928,3.052-15.539,11.496c-3.799,8.883-1.443,17.637-0.842,19.559C306.697,386.898,307.974,383.5,309.764,379.538
			z"/>
	</g>
	<g>
		<path style="fill:#92E3A9;" d="M388.366,262.688l4.008-5.335c0.166-0.221,0.479-0.266,0.7-0.1c0.22,0.166,0.265,0.481,0.1,0.7
			l-3.436,4.574c1.876-0.228,3.699-0.498,5.461-0.803l4.098-5.895c0.158-0.227,0.469-0.283,0.696-0.125
			c0.226,0.158,0.277,0.471,0.125,0.696l-3.53,5.078c2.22-0.412,4.328-0.874,6.317-1.358c0.011-0.017,0.019-0.035,0.032-0.051
			l3.989-4.631c0.18-0.21,0.496-0.233,0.705-0.053c0.209,0.18,0.231,0.498,0.053,0.705l-3.11,3.61
			c4.96-1.286,9.041-2.685,11.909-3.776c-3.335-0.936-12.929-3.446-18.952-3.168c-6.488,0.299-13.184,8.412-14.715,10.379
			C384.706,263.033,386.56,262.883,388.366,262.688z"/>
		<path style="fill:#92E3A9;" d="M407.422,259.963l3.328,0.955c0.265,0.076,0.419,0.353,0.343,0.618
			c-0.072,0.266-0.353,0.419-0.618,0.343l-4.753-1.365c-0.04-0.011-0.071-0.035-0.105-0.054c-2.283,0.608-4.763,1.195-7.401,1.72
			l4.698,3.002c0.233,0.148,0.302,0.458,0.152,0.69c-0.149,0.233-0.458,0.301-0.69,0.152l-5.334-3.408
			c-0.071-0.046-0.121-0.109-0.16-0.178c-2.35,0.439-4.82,0.821-7.383,1.124l5.089,3.284c0.232,0.15,0.298,0.457,0.149,0.692
			c-0.15,0.232-0.459,0.298-0.692,0.149l-5.901-3.809c-0.06-0.039-0.109-0.09-0.147-0.149c-1.581,0.164-3.196,0.295-4.838,0.389
			c2.263,1.789,10.023,7.151,18.806,4.468c9.24-2.823,14.413-10.267,15.495-11.966C415.026,257.563,411.605,258.778,407.422,259.963
			z"/>
	</g>
	<g>
		<path style="fill:#92E3A9;" d="M41.979,281.61l4.008-5.335c0.166-0.221,0.479-0.265,0.7-0.1c0.22,0.166,0.265,0.481,0.1,0.7
			l-3.436,4.574c1.876-0.228,3.699-0.498,5.461-0.803l4.098-5.895c0.158-0.227,0.469-0.283,0.696-0.125
			c0.226,0.158,0.277,0.471,0.125,0.696l-3.53,5.078c2.22-0.412,4.328-0.874,6.317-1.358c0.011-0.017,0.019-0.035,0.032-0.051
			l3.989-4.631c0.18-0.21,0.496-0.233,0.705-0.053c0.209,0.18,0.231,0.498,0.053,0.705l-3.11,3.61
			c4.96-1.286,9.041-2.685,11.909-3.776c-3.335-0.935-12.929-3.446-18.952-3.168c-6.488,0.299-13.184,8.412-14.715,10.379
			C38.319,281.955,40.173,281.805,41.979,281.61z"/>
		<path style="fill:#92E3A9;" d="M61.035,278.885l3.328,0.955c0.265,0.076,0.419,0.353,0.343,0.618
			c-0.072,0.266-0.353,0.419-0.618,0.343l-4.753-1.365c-0.039-0.011-0.071-0.035-0.105-0.054c-2.283,0.608-4.763,1.195-7.401,1.72
			l4.698,3.002c0.233,0.148,0.302,0.458,0.152,0.69c-0.149,0.233-0.458,0.301-0.69,0.152l-5.334-3.408
			c-0.071-0.046-0.121-0.109-0.16-0.178c-2.35,0.439-4.82,0.821-7.383,1.124l5.089,3.285c0.232,0.151,0.298,0.457,0.149,0.692
			c-0.15,0.232-0.459,0.298-0.692,0.149l-5.901-3.809c-0.06-0.039-0.109-0.09-0.147-0.149c-1.581,0.164-3.196,0.295-4.838,0.388
			c2.263,1.789,10.023,7.151,18.806,4.468c9.24-2.823,14.413-10.267,15.495-11.966C68.639,276.485,65.217,277.7,61.035,278.885z"/>
	</g>
	<g>
		<path style="fill:#92E3A9;" d="M165.96,189.36l4.008-5.335c0.166-0.221,0.479-0.265,0.7-0.1c0.22,0.166,0.265,0.481,0.1,0.7
			l-3.437,4.574c1.876-0.228,3.7-0.498,5.461-0.803l4.098-5.895c0.158-0.227,0.469-0.283,0.696-0.125
			c0.226,0.158,0.277,0.471,0.125,0.696l-3.53,5.078c2.22-0.412,4.328-0.874,6.317-1.358c0.011-0.017,0.019-0.035,0.032-0.051
			l3.989-4.631c0.18-0.21,0.496-0.233,0.705-0.053s0.231,0.498,0.053,0.705l-3.11,3.61c4.96-1.286,9.041-2.685,11.909-3.776
			c-3.335-0.935-12.929-3.446-18.952-3.168c-6.488,0.299-13.184,8.412-14.715,10.379C162.3,189.705,164.154,189.555,165.96,189.36z"
			/>
		<path style="fill:#92E3A9;" d="M185.015,186.634l3.328,0.955c0.265,0.076,0.419,0.353,0.343,0.618
			c-0.072,0.267-0.353,0.419-0.618,0.343l-4.753-1.365c-0.039-0.011-0.071-0.035-0.105-0.054c-2.283,0.608-4.763,1.195-7.401,1.72
			l4.698,3.002c0.233,0.148,0.302,0.458,0.152,0.69c-0.149,0.233-0.458,0.301-0.69,0.152l-5.334-3.408
			c-0.071-0.046-0.121-0.109-0.16-0.178c-2.35,0.439-4.82,0.821-7.383,1.124l5.089,3.285c0.232,0.15,0.298,0.456,0.149,0.691
			c-0.15,0.232-0.459,0.298-0.692,0.149l-5.901-3.809c-0.06-0.039-0.109-0.09-0.147-0.149c-1.581,0.164-3.196,0.295-4.838,0.389
			c2.263,1.789,10.023,7.151,18.806,4.468c9.24-2.823,14.413-10.267,15.495-11.965C192.619,184.235,189.198,185.45,185.015,186.634z
			"/>
	</g>
	<g>
		<path style="fill:#92E3A9;" d="M322.354,242.073l-6.096-2.715c-0.252-0.112-0.366-0.408-0.254-0.66
			c0.112-0.252,0.41-0.366,0.66-0.254l5.226,2.328c-0.641-1.778-1.312-3.495-2.003-5.144l-6.661-2.678
			c-0.257-0.103-0.38-0.394-0.278-0.65c0.103-0.256,0.397-0.376,0.65-0.278l5.738,2.307c-0.898-2.072-1.819-4.024-2.735-5.854
			c-0.019-0.007-0.039-0.01-0.057-0.02l-5.405-2.854c-0.245-0.129-0.338-0.431-0.209-0.675c0.129-0.244,0.434-0.336,0.675-0.209
			l4.213,2.225c-2.361-4.547-4.637-8.212-6.342-10.765c-0.167,3.46-0.47,13.372,1.146,19.18
			c1.741,6.257,11.145,10.971,13.404,12.025C323.508,245.563,322.948,243.789,322.354,242.073z"/>
		<path style="fill:#92E3A9;" d="M315.44,224.108l0.188-3.457c0.015-0.276,0.251-0.487,0.526-0.472
			c0.276,0.011,0.487,0.251,0.472,0.526l-0.268,4.938c-0.002,0.041-0.018,0.077-0.03,0.114c1.103,2.089,2.229,4.376,3.33,6.83
			l1.876-5.25c0.092-0.26,0.379-0.397,0.639-0.303c0.26,0.093,0.395,0.379,0.302,0.639l-2.13,5.961
			c-0.029,0.08-0.079,0.142-0.138,0.196c0.953,2.192,1.877,4.515,2.745,6.945l2.065-5.694c0.095-0.26,0.378-0.392,0.641-0.3
			c0.259,0.094,0.393,0.381,0.3,0.641l-2.395,6.603c-0.024,0.067-0.063,0.127-0.112,0.177c0.513,1.504,1.001,3.049,1.46,4.629
			c1.238-2.605,4.731-11.367,0.153-19.329c-4.816-8.375-13.228-11.755-15.125-12.43C311.402,217.232,313.351,220.296,315.44,224.108
			z"/>
	</g>
	<g>
		<path style="fill:#92E3A9;" d="M427.611,394.369l-6.096-2.715c-0.252-0.112-0.366-0.408-0.253-0.66
			c0.112-0.252,0.409-0.366,0.66-0.254l5.226,2.328c-0.641-1.778-1.312-3.495-2.003-5.144l-6.661-2.678
			c-0.257-0.103-0.38-0.394-0.278-0.651c0.103-0.256,0.397-0.375,0.65-0.278l5.738,2.307c-0.898-2.072-1.819-4.024-2.735-5.854
			c-0.019-0.007-0.039-0.01-0.057-0.02l-5.405-2.854c-0.245-0.129-0.338-0.431-0.209-0.675c0.129-0.244,0.434-0.336,0.675-0.209
			l4.213,2.224c-2.361-4.547-4.637-8.212-6.341-10.765c-0.167,3.46-0.47,13.372,1.146,19.18
			c1.741,6.257,11.145,10.971,13.404,12.025C428.765,397.859,428.205,396.085,427.611,394.369z"/>
		<path style="fill:#92E3A9;" d="M420.697,376.404l0.188-3.457c0.015-0.276,0.25-0.487,0.526-0.472
			c0.276,0.011,0.487,0.251,0.472,0.526l-0.268,4.938c-0.002,0.041-0.018,0.077-0.03,0.114c1.103,2.089,2.229,4.375,3.33,6.83
			l1.876-5.25c0.092-0.26,0.379-0.397,0.639-0.302c0.26,0.093,0.395,0.379,0.302,0.639l-2.13,5.961
			c-0.028,0.08-0.079,0.142-0.138,0.195c0.953,2.192,1.877,4.515,2.745,6.945l2.065-5.694c0.095-0.26,0.378-0.392,0.641-0.3
			c0.259,0.094,0.393,0.381,0.3,0.641l-2.394,6.603c-0.024,0.067-0.063,0.127-0.112,0.177c0.513,1.504,1.001,3.049,1.46,4.629
			c1.238-2.605,4.731-11.367,0.153-19.329c-4.816-8.375-13.228-11.755-15.125-12.43
			C416.659,369.528,418.607,372.591,420.697,376.404z"/>
	</g>
	<g>
		<path style="fill:#92E3A9;" d="M141.878,289.299l1.494,6.504c0.062,0.269-0.106,0.538-0.375,0.6
			c-0.269,0.062-0.538-0.108-0.599-0.375l-1.281-5.576c-1.035,1.581-2.004,3.149-2.907,4.693l1.864,6.933
			c0.072,0.267-0.087,0.541-0.353,0.613c-0.267,0.071-0.539-0.092-0.613-0.353l-1.606-5.973c-1.116,1.963-2.122,3.872-3.034,5.705
			c0.006,0.019,0.015,0.037,0.018,0.057l0.968,6.035c0.044,0.273-0.142,0.529-0.414,0.573s-0.53-0.145-0.573-0.414l-0.755-4.704
			c-2.215,4.62-3.776,8.642-4.791,11.538c2.865-1.946,10.969-7.662,14.64-12.445c3.954-5.152,2.069-15.502,1.553-17.94
			C143.974,286.279,142.893,287.793,141.878,289.299z"/>
		<path style="fill:#92E3A9;" d="M131.677,305.623l-2.876,1.928c-0.229,0.154-0.54,0.092-0.694-0.137
			c-0.157-0.227-0.093-0.54,0.137-0.694l4.107-2.754c0.034-0.023,0.072-0.032,0.109-0.045c1.007-2.138,2.157-4.411,3.457-6.767
			l-5.324,1.656c-0.263,0.082-0.545-0.064-0.626-0.329c-0.082-0.264,0.065-0.544,0.329-0.626l6.044-1.881
			c0.081-0.025,0.161-0.022,0.239-0.008c1.179-2.079,2.48-4.214,3.901-6.368l-5.791,1.772c-0.264,0.08-0.541-0.066-0.625-0.332
			c-0.081-0.264,0.068-0.543,0.332-0.625l6.716-2.055c0.068-0.021,0.139-0.026,0.208-0.017c0.894-1.314,1.835-2.633,2.822-3.949
			c-2.826,0.577-11.928,3.052-15.539,11.496c-3.799,8.883-1.444,17.637-0.842,19.559
			C128.609,312.983,129.886,309.585,131.677,305.623z"/>
	</g>
	<g>
		<path style="fill:#92E3A9;" d="M106.77,381.019l1.494,6.504c0.062,0.269-0.106,0.538-0.375,0.599
			c-0.269,0.062-0.538-0.107-0.6-0.375l-1.281-5.576c-1.035,1.581-2.004,3.149-2.907,4.692l1.864,6.933
			c0.072,0.267-0.087,0.541-0.353,0.613c-0.267,0.071-0.539-0.091-0.613-0.353l-1.606-5.972c-1.116,1.963-2.122,3.872-3.034,5.705
			c0.006,0.019,0.015,0.037,0.018,0.057l0.968,6.035c0.044,0.273-0.142,0.529-0.414,0.573c-0.273,0.043-0.53-0.145-0.573-0.414
			l-0.755-4.704c-2.215,4.621-3.776,8.642-4.791,11.539c2.865-1.946,10.969-7.662,14.64-12.445
			c3.954-5.152,2.069-15.502,1.553-17.94C108.866,377.998,107.785,379.512,106.77,381.019z"/>
		<path style="fill:#92E3A9;" d="M96.569,397.343l-2.876,1.928c-0.229,0.154-0.54,0.093-0.694-0.137
			c-0.157-0.227-0.093-0.54,0.137-0.694l4.107-2.754c0.034-0.023,0.072-0.032,0.109-0.045c1.007-2.138,2.157-4.411,3.457-6.767
			l-5.324,1.656c-0.263,0.083-0.545-0.064-0.626-0.329c-0.082-0.264,0.065-0.544,0.329-0.626l6.045-1.881
			c0.081-0.025,0.161-0.022,0.239-0.007c1.179-2.079,2.48-4.214,3.901-6.369l-5.791,1.772c-0.264,0.08-0.541-0.066-0.625-0.332
			c-0.08-0.264,0.068-0.543,0.332-0.625l6.716-2.055c0.068-0.021,0.139-0.025,0.209-0.017c0.894-1.314,1.835-2.633,2.822-3.949
			c-2.826,0.577-11.928,3.052-15.539,11.496c-3.799,8.883-1.444,17.637-0.842,19.559C93.501,404.702,94.778,401.304,96.569,397.343z
			"/>
	</g>
	<g>
		<path style="fill:#92E3A9;" d="M370.044,106.751l1.495,6.504c0.062,0.269-0.106,0.538-0.375,0.6
			c-0.269,0.062-0.538-0.108-0.599-0.375l-1.281-5.576c-1.035,1.581-2.004,3.149-2.907,4.692l1.864,6.933
			c0.072,0.267-0.086,0.541-0.353,0.613c-0.267,0.071-0.539-0.092-0.613-0.353l-1.606-5.973c-1.116,1.963-2.122,3.872-3.034,5.705
			c0.006,0.019,0.015,0.037,0.018,0.057l0.968,6.035c0.044,0.273-0.142,0.529-0.414,0.573c-0.273,0.043-0.53-0.145-0.573-0.414
			l-0.755-4.704c-2.215,4.621-3.776,8.642-4.791,11.538c2.865-1.946,10.969-7.662,14.64-12.445
			c3.954-5.152,2.069-15.502,1.553-17.94C372.14,103.73,371.059,105.244,370.044,106.751z"/>
		<path style="fill:#92E3A9;" d="M359.843,123.075l-2.876,1.928c-0.229,0.154-0.54,0.092-0.694-0.137
			c-0.157-0.227-0.093-0.54,0.137-0.694l4.107-2.754c0.034-0.023,0.072-0.032,0.109-0.045c1.007-2.137,2.157-4.411,3.457-6.767
			l-5.324,1.656c-0.263,0.082-0.545-0.064-0.626-0.329c-0.082-0.264,0.065-0.544,0.329-0.626l6.044-1.881
			c0.081-0.025,0.161-0.022,0.239-0.007c1.179-2.079,2.48-4.214,3.901-6.368l-5.791,1.772c-0.264,0.08-0.541-0.066-0.625-0.332
			c-0.081-0.264,0.068-0.543,0.332-0.625l6.716-2.055c0.068-0.021,0.139-0.026,0.209-0.017c0.894-1.314,1.835-2.633,2.822-3.949
			c-2.826,0.577-11.928,3.052-15.539,11.496c-3.799,8.883-1.443,17.637-0.842,19.559
			C356.775,130.434,358.052,127.036,359.843,123.075z"/>
	</g>
	<g>
		<path style="fill:#92E3A9;" d="M444.296,128.769l1.495,6.504c0.062,0.269-0.106,0.538-0.375,0.599
			c-0.269,0.062-0.538-0.107-0.6-0.375l-1.281-5.576c-1.035,1.581-2.004,3.149-2.907,4.693l1.864,6.933
			c0.072,0.267-0.086,0.541-0.353,0.613c-0.267,0.071-0.539-0.091-0.613-0.353l-1.606-5.973c-1.116,1.963-2.122,3.872-3.034,5.705
			c0.006,0.019,0.015,0.037,0.018,0.057l0.968,6.035c0.044,0.273-0.142,0.529-0.414,0.573c-0.272,0.044-0.53-0.145-0.573-0.414
			l-0.755-4.704c-2.215,4.62-3.776,8.642-4.791,11.538c2.865-1.946,10.969-7.662,14.64-12.445c3.954-5.152,2.069-15.502,1.553-17.94
			C446.391,125.749,445.311,127.262,444.296,128.769z"/>
		<path style="fill:#92E3A9;" d="M434.094,145.093l-2.876,1.928c-0.229,0.154-0.54,0.093-0.694-0.137
			c-0.157-0.227-0.092-0.54,0.137-0.694l4.107-2.754c0.034-0.023,0.072-0.032,0.109-0.045c1.007-2.138,2.157-4.412,3.457-6.767
			l-5.324,1.656c-0.263,0.083-0.545-0.064-0.626-0.329c-0.082-0.264,0.065-0.544,0.329-0.626l6.045-1.881
			c0.081-0.025,0.161-0.022,0.239-0.007c1.179-2.079,2.48-4.214,3.901-6.369l-5.791,1.773c-0.264,0.08-0.541-0.067-0.625-0.332
			c-0.081-0.264,0.068-0.543,0.332-0.625l6.716-2.055c0.068-0.021,0.139-0.026,0.209-0.017c0.893-1.314,1.835-2.633,2.822-3.949
			c-2.826,0.577-11.928,3.052-15.539,11.496c-3.799,8.883-1.443,17.637-0.842,19.559
			C431.026,152.453,432.304,149.055,434.094,145.093z"/>
	</g>
</g>
<g id="Character">
	<g>
		<path style="fill:#FFFFFF;stroke:#263238;stroke-linecap:round;stroke-linejoin:round;stroke-miterlimit:10;" d="M250.165,327.835
			c0,0,14.264,32.822,14.14,34.371c-0.124,1.548-2.505,15.123,2.526,26.952c5.03,11.828,23.993,54.115,25.336,56.819
			c1.343,2.704,1.973,4.572,4.037,4.737c2.065,0.165,10.218-4.379,13.893-4.865c3.675-0.486,9.279-2.377,11.746-3.998
			c2.467-1.621,6.471-6.237,3.611-6.205c-2.859,0.032-7.03,0.219-9.61,0.013c-2.581-0.206-9.724-1.814-12.677-3.868
			c-2.953-2.053-4.223-2.414-4.419-3.209c-0.196-0.795-11.118-42.96-11.316-50.247s-1.688-21.171-1.751-26.89
			c-0.063-5.719-2.939-28.283-4.767-34.662c-1.829-6.379-2.924-12.18-2.924-12.18l-35.943,1.289L250.165,327.835z"/>
		<path style="fill:#92E3A9;stroke:#263238;stroke-linecap:round;stroke-linejoin:round;stroke-miterlimit:10;" d="M292.167,445.976
			c1.343,2.704,1.973,4.572,4.037,4.737c2.064,0.165,10.218-4.379,13.893-4.866c3.675-0.486,9.28-2.377,11.746-3.998
			s6.471-6.237,3.611-6.205c-2.859,0.032-7.03,0.219-9.61,0.013c-2.375-0.189-8.605-1.568-11.886-3.386
			c-0.432,0.646-0.842,1.449-1.017,2.357c-0.443,2.302-0.309,3.871-0.309,3.871s-7.088,3.199-12.257,3.593
			C291.32,444.171,291.958,445.555,292.167,445.976z"/>
		<path style="fill:#263238;stroke:#263238;stroke-linecap:round;stroke-linejoin:round;stroke-miterlimit:10;" d="M266.831,389.157
			c2.217,5.215,7.143,16.348,12.072,27.401c4.729-0.93,10.887-2.609,15.438-5.52c-3.129-12.764-6.795-28.51-6.909-32.704
			c-0.198-7.288-1.688-21.171-1.751-26.89c-0.063-5.719-2.939-28.283-4.767-34.662c-1.829-6.379-2.924-12.18-2.924-12.18
			l-35.943,1.289l8.119,21.944c0,0,14.264,32.822,14.14,34.371C264.182,363.754,261.801,377.328,266.831,389.157z"/>
		<g>
			<path style="fill:#FFFFFF;stroke:#263238;stroke-linecap:round;stroke-linejoin:round;stroke-miterlimit:10;" d="
				M221.038,299.021l4.009,57.197c0,0-12.577,13.63-14.776,17.469c-2.2,3.838-15.617,35.132-18.869,42.209
				c-3.252,7.077-11.395,15.193-10.623,16.892s11.11,12.303,14.776,13.95c3.666,1.647,12.031,4.093,13.22,3.237
				c1.189-0.855,0.203-2.852,0.203-2.852s-4.669-4.204-5.227-5.607c-0.558-1.402-4.805-10.751-4.602-13.603
				c0.203-2.852,4.435-9.507,6.765-12.537c2.33-3.03,34.899-45.174,38.851-52.391c3.952-7.217,5.302-14.381,5.302-14.381
				l11.313-40.911C261.38,307.692,239.62,306.996,221.038,299.021z"/>
			<path style="fill:#263238;stroke:#263238;stroke-linecap:round;stroke-linejoin:round;stroke-miterlimit:10;" d="
				M250.067,348.604l11.313-40.911c0,0-21.76-0.696-40.343-8.671l4.009,57.197c0,0-12.577,13.63-14.776,17.469
				c-1.568,2.737-10.227,22.639-14.626,32.656c2.363,2.398,6.175,5.554,11.373,7.655c5.922-7.292,34.117-44.385,37.747-51.013
				C248.717,355.768,250.067,348.604,250.067,348.604z"/>
			<path style="fill:#92E3A9;stroke:#263238;stroke-linecap:round;stroke-linejoin:round;stroke-miterlimit:10;" d="
				M203.751,441.516c-0.478-1.201-3.654-8.22-4.431-12.005c-0.459,0.098-0.941,0.222-1.409,0.379c-1.868,0.63-3.241,1.56-3.241,1.56
				s-5.037-2.498-9.267-6.188c-2.716,3.64-5.053,6.579-4.623,7.526c0.772,1.7,11.11,12.303,14.776,13.95
				c3.666,1.647,12.031,4.093,13.22,3.237c1.189-0.855,0.203-2.852,0.203-2.852S204.309,442.918,203.751,441.516z"/>
		</g>
		<path style="fill:#92E3A9;stroke:#263238;stroke-linecap:round;stroke-linejoin:round;stroke-miterlimit:10;" d="M270.907,176.908
			c0,0-6.492,12.338-7.157,17.54c-0.665,5.203,11.157,20.161,12.252,25.255c1.096,5.093-5.077,22.872-5.007,25.13
			c0.07,2.258,19.074,55.833,19.074,55.833s-0.247,6.237-27.165,11.099c-26.918,4.861-48.32-12.363-48.32-12.363
			s14.999-46.858,15.495-53.076c0.496-6.218-0.325-27.307,3.263-37.783s13.076-22.734,14.746-24.854s2.118-4.587,2.217-5.83
			s2.057-10.098,2.057-10.098L270.907,176.908z"/>
		<path style="fill:#FFFFFF;stroke:#263238;stroke-linecap:round;stroke-linejoin:round;stroke-miterlimit:10;" d="M263.749,194.449
			c0.665-5.203,7.157-17.54,7.157-17.54l-18.545-9.147c0,0-1.957,8.854-2.057,10.098c-0.099,1.243-0.546,3.711-2.217,5.83
			c-1.056,1.339-5.233,6.73-9.071,13.16c2.365-1.707,6.298-3.728,11.275-3.202c6.157,0.65,15.931,12.083,21.246,17.316
			C267.852,204.853,263.331,197.722,263.749,194.449z"/>
		<g>
			<path style="fill:#FFFFFF;stroke:#263238;stroke-linecap:round;stroke-linejoin:round;stroke-miterlimit:10;" d="
				M283.671,134.479c0,0,3.007,12.73,2.596,15.238c-0.412,2.508-2.389,3.409-1.766,6.21c0.623,2.802,4.84,5.679,4.756,6.73
				c-0.084,1.052-4.576,4.293-4.576,4.293s-2.622,11.646-4.162,12.37c-1.54,0.724-9.34,0.314-12.201-0.973
				c-2.861-1.287-6.32-3.044-6.32-3.044s-3.445-12.554-3.228-20.581c0.217-8.028,7.874-8.475,11.508-11.573
				C273.912,140.052,282.771,132.502,283.671,134.479z"/>
			<path style="fill:none;stroke:#263238;stroke-linecap:round;stroke-linejoin:round;stroke-miterlimit:10;" d="M274.662,164.915
				c0,0,1.576,2.976,5.387,3.928"/>
			<path d="M281.302,154.757c-0.088,1.102-0.591,1.961-1.125,1.919c-0.533-0.043-0.894-0.97-0.806-2.073
				c0.088-1.102,0.591-1.961,1.125-1.918C281.029,152.727,281.39,153.654,281.302,154.757z"/>
			<path style="fill:none;stroke:#263238;stroke-linecap:round;stroke-linejoin:round;stroke-miterlimit:10;" d="M277.557,149.729
				c0,0,3.614-3.08,6.627-0.249"/>
		</g>
		<path style="fill:#263238;stroke:#263238;stroke-linecap:round;stroke-linejoin:round;stroke-miterlimit:10;" d="M263.212,152.113
			c0,0,10.988-5.051,15.648-10.396c4.66-5.344,8.067-8.248,7.831-10.596c-0.236-2.348-19.744-12.583-29.782-11.478
			c-10.038,1.105-16.895,4.792-24.539,23.66c-7.644,18.867-9.013,28.073-5.378,30.269c3.636,2.195,17.765,8.191,27.038,8.719
			c9.273,0.528,11.671-0.34,11.671-0.34S260.496,162.27,263.212,152.113z"/>
		<g>
			<g>
				<path style="fill:#FFFFFF;stroke:#263238;stroke-linecap:round;stroke-linejoin:round;stroke-miterlimit:10;" d="
					M223.801,241.24c0,0-8.412-30.392-5.784-43.334c2.628-12.942,10.148-6.567,11.786,0.311c2.724,11.439,4.425,23.213,6.341,34.805
					c1.076,6.51,2.202,13.28,3.079,19.922c0.831,6.297,2.576,13.811-0.828,19.651c-2.175,3.732-5.906,2.848-8.239-0.198
					c-2.328-3.04-2.622-7.524-3.282-11.183C225.679,254.587,224.689,247.916,223.801,241.24z"/>
				<g>
					<path style="fill:#FFFFFF;stroke:#263238;stroke-linecap:round;stroke-linejoin:round;stroke-miterlimit:10;" d="
						M228.607,206.379c0,0-8.066,0.779-8.89,2.537c-0.824,1.759,5.351,1.644,8.473,0.257
						C231.313,207.787,230.425,206.542,228.607,206.379z"/>
					<path style="fill:#FFFFFF;stroke:#263238;stroke-linecap:round;stroke-linejoin:round;stroke-miterlimit:10;" d="
						M230.833,220.584c0,0-8.066,0.779-8.89,2.537c-0.824,1.759,5.351,1.644,8.473,0.257
						C233.539,221.992,232.651,220.746,230.833,220.584z"/>
					<path style="fill:#FFFFFF;stroke:#263238;stroke-linecap:round;stroke-linejoin:round;stroke-miterlimit:10;" d="
						M233.059,234.788c0,0-8.066,0.779-8.89,2.537c-0.824,1.759,5.351,1.644,8.473,0.258
						C235.765,236.196,234.877,234.951,233.059,234.788z"/>
					<path style="fill:#FFFFFF;stroke:#263238;stroke-linecap:round;stroke-linejoin:round;stroke-miterlimit:10;" d="
						M235.285,248.993c0,0-8.066,0.779-8.89,2.537c-0.824,1.759,5.351,1.644,8.473,0.258
						C237.992,250.401,237.103,249.155,235.285,248.993z"/>
				</g>
			</g>
			<path style="fill:#92E3A9;stroke:#263238;stroke-linecap:round;stroke-linejoin:round;stroke-miterlimit:10;" d="
				M211.685,237.223c0,0-9.321-20.885-10.876-20.177c-1.555,0.708-0.031,6.656-0.031,6.656s-7.345-3.915-8.952-2.545
				c-1.607,1.37,4.202,3.664,4.202,3.664s-15.032,0.632-15.521,2.591c-0.489,1.958,12.227,1.141,12.227,1.141
				s-8.507,6.479-9.009,8.603c-0.502,2.124,8.918-3.284,8.918-3.284s-9.63,12.216-6.208,17.316
				c3.422,5.1,11.256-20.076,11.256-20.076s-0.25,7.304,1.371,5.769c1.621-1.535,4.723-4.95,4.723-4.95s-2.566,2.958-0.621,3.613
				c1.945,0.655,3.169-0.08,3.169-0.08l2.687,3.876L211.685,237.223z"/>
			<g>
				<path style="fill:#FFFFFF;stroke:#263238;stroke-linecap:round;stroke-linejoin:round;stroke-miterlimit:10;" d="
					M214.275,240.733c0,0-11.438-29.387-10.13-42.528c1.308-13.141,9.433-7.559,11.757-0.88c3.865,11.105,6.747,22.647,9.823,33.987
					c1.728,6.368,3.532,12.989,5.075,19.509c1.462,6.181,3.957,13.48,1.161,19.635c-1.787,3.932-5.588,3.43-8.217,0.635
					c-2.623-2.789-3.369-7.221-4.394-10.794C217.492,253.822,215.833,247.285,214.275,240.733z"/>
				<g>
					<path style="fill:#FFFFFF;stroke:#263238;stroke-linecap:round;stroke-linejoin:round;stroke-miterlimit:10;" d="
						M215.536,205.565c0,0-7.946,1.589-8.588,3.422c-0.642,1.833,5.489,1.096,8.456-0.6
						C218.37,206.692,217.361,205.543,215.536,205.565z"/>
					<path style="fill:#FFFFFF;stroke:#263238;stroke-linecap:round;stroke-linejoin:round;stroke-miterlimit:10;" d="
						M219.185,219.472c0,0-7.946,1.589-8.588,3.422c-0.642,1.833,5.489,1.096,8.456-0.6S221.01,219.45,219.185,219.472z"/>
					<path style="fill:#FFFFFF;stroke:#263238;stroke-linecap:round;stroke-linejoin:round;stroke-miterlimit:10;" d="
						M222.834,233.379c0,0-7.946,1.589-8.588,3.422c-0.642,1.833,5.489,1.096,8.456-0.599
						C225.669,234.507,224.659,233.357,222.834,233.379z"/>
					<path style="fill:#FFFFFF;stroke:#263238;stroke-linecap:round;stroke-linejoin:round;stroke-miterlimit:10;" d="
						M226.484,247.286c0,0-7.946,1.589-8.588,3.422c-0.642,1.833,5.489,1.096,8.456-0.6
						C229.318,248.414,228.309,247.264,226.484,247.286z"/>
				</g>
			</g>
			<g>
				<path style="fill:#D6D6D6;stroke:#263238;stroke-linecap:round;stroke-linejoin:round;stroke-miterlimit:10;" d="
					M204.061,235.077l58.986,9.379c0,0,0.069,67.53-0.064,72.454c-0.133,4.924,2.132,6.723-11.415,6.362
					c-20.292-0.542-46.092-4.974-55.651-8.853c-9.56-3.879-11.46-6.108-10.438-9.143
					C186.499,302.24,204.061,235.077,204.061,235.077z"/>
				<path style="fill:#D6D6D6;stroke:#263238;stroke-linecap:round;stroke-linejoin:round;stroke-miterlimit:10;" d="
					M215.076,236.994c0,0,22.999-37.642,28.367-39.811c5.367-2.169,13.637,1.607,15.228,7.707c1.591,6.1,0.051,38.441,0.051,38.441
					l-3.076-0.505c0,0,1.787-35.438,0.011-39.216c-1.777-3.778-8.084-6.099-11.583-4.56c-3.499,1.539-24.61,38.293-24.61,38.293
					L215.076,236.994z"/>
			</g>
		</g>
		<g>
			<path style="fill:#FFFFFF;stroke:#263238;stroke-linecap:round;stroke-linejoin:round;stroke-miterlimit:10;" d="M265.007,238.97
				c0,0-2.838-17.004-6.138-28.219c-3.3-11.215-11.738-13.519-17.97-8.423c-6.232,5.095,0.442,26.599,4.687,37.656
				s13.224,29.949,15.568,32.699c2.344,2.75,3.715,3.092,5.807,0.23c2.092-2.862,13.698-37.355,14.678-43.802
				c0.98-6.446-1.504-16.198-2.543-20.708c-1.038-4.51-5.706-4.416-7.161-6.63c-1.455-2.213-5.586-3.009-6.141-1.888
				s-1.703,3.826-1.703,3.826s-2.195,1.223-1.629,2.899c0.565,1.676,2.362,2.518,3.743,5.658c1.381,3.139,3.335,4.926,4.438,5.713
				c1.102,0.787,5.36,1.722,5.36,1.722l-9.836,25.184L265.007,238.97z"/>
			
				<line style="fill:none;stroke:#263238;stroke-linecap:round;stroke-linejoin:round;stroke-miterlimit:10;" x1="266.166" y1="244.888" x2="269.214" y2="254.094"/>
			<path style="fill:none;stroke:#263238;stroke-linecap:round;stroke-linejoin:round;stroke-miterlimit:10;" d="M264.09,203.711
				c0,0,0.706,0.297,1.246,0.93c0.54,0.633,2.881,2.738,2.881,2.738"/>
			
				<line style="fill:none;stroke:#263238;stroke-linecap:round;stroke-linejoin:round;stroke-miterlimit:10;" x1="266.856" y1="205.943" x2="267.899" y2="203.96"/>
		</g>
		<g id="LdiMUf_2_">
			<g>
				<path style="fill:#263238;" d="M221.489,293.016c-0.177-0.028-0.332-0.053-0.487-0.077c-2.781-0.441-5.561-0.885-8.342-1.323
					c-1.699-0.267-2.89-1.179-3.519-2.784c-0.66-1.682-1.297-3.374-1.943-5.062c-0.015-0.039-0.013-0.085-0.01-0.069
					c4.979,0.79,9.969,1.586,14.961,2.368c0.344,0.054,0.467,0.151,0.405,0.524c-0.336,2.014-0.646,4.033-0.967,6.05
					C221.568,292.755,221.529,292.863,221.489,293.016z"/>
				<path style="fill:#263238;" d="M230.283,284.854c-0.139,0.876-0.259,1.63-0.385,2.427c0.208,0.044,0.372,0.086,0.538,0.112
					c1.858,0.297,3.714,0.599,5.575,0.878c0.329,0.049,0.505,0.169,0.622,0.49c0.45,1.232,0.937,2.449,1.397,3.677
					c0.645,1.723-0.51,3.124-2.325,2.835c-2.131-0.34-4.263-0.676-6.395-1.014c-0.142-0.022-0.285-0.045-0.479-0.076
					c-0.126,0.794-0.248,1.561-0.37,2.328c-0.037,0.012-0.074,0.023-0.111,0.034c-1.665-2.235-3.33-4.47-5.033-6.756
					C225.618,288.158,227.902,286.541,230.283,284.854z"/>
				<path style="fill:#263238;" d="M217.88,271.788c0.263,2.839,0.52,5.614,0.787,8.499c-0.687-0.552-1.285-1.031-1.923-1.544
					c-0.109,0.121-0.217,0.229-0.313,0.348c-1.201,1.482-2.406,2.961-3.595,4.453c-0.206,0.258-0.399,0.346-0.736,0.286
					c-1.263-0.224-2.527-0.455-3.8-0.601c-1.824-0.21-2.528-2.146-1.345-3.509c1.412-1.627,2.726-3.339,4.082-5.014
					c0.09-0.111,0.174-0.226,0.278-0.361c-0.629-0.514-1.236-1.01-1.916-1.566C212.267,272.444,215.048,272.119,217.88,271.788z"/>
				<path style="fill:#263238;" d="M215.982,268.617c0.712-0.881,1.388-1.718,2.065-2.554c1.211-1.494,2.418-2.991,3.634-4.481
					c1.091-1.336,2.502-1.85,4.198-1.586c1.657,0.257,3.313,0.524,4.969,0.787c0.126,0.02,0.253,0.04,0.382,0.061
					c-3.29,4.053-6.559,8.08-9.857,12.143C219.578,271.531,217.806,270.095,215.982,268.617z"/>
				<path style="fill:#263238;" d="M237.253,269.119c0.768-0.292,1.487-0.566,2.312-0.88c-1.149,2.664-2.255,5.231-3.38,7.838
					c-2.576-1.185-5.107-2.348-7.755-3.566c0.831-0.324,1.554-0.605,2.315-0.901c-0.283-0.746-0.554-1.464-0.828-2.181
					c-0.473-1.238-0.94-2.479-1.428-3.711c-0.096-0.241-0.057-0.401,0.097-0.59c0.849-1.037,1.678-2.091,2.536-3.12
					c1.181-1.417,2.956-1.121,3.619,0.596c0.771,1.998,1.532,3.999,2.299,5.998C237.1,268.765,237.171,268.923,237.253,269.119z"/>
				<path style="fill:#263238;" d="M233.399,278.505c2.182-0.837,4.3-1.65,6.459-2.478c0.071,0.157,0.135,0.281,0.185,0.411
					c1.019,2.651,2.034,5.303,3.054,7.954c0.623,1.62,0.416,3.114-0.676,4.471c-1.087,1.35-2.179,2.695-3.271,4.041
					c-0.062,0.076-0.138,0.141-0.177,0.179C237.121,288.239,235.269,283.395,233.399,278.505z"/>
			</g>
		</g>
	</g>
</g>
<g id="Bag_2">
	<g>
		<g>
			<path style="fill:none;stroke:#263238;stroke-linecap:round;stroke-linejoin:round;stroke-miterlimit:10;" d="M368.171,325.93
				c0,0,4.777-1.786,15.539-20.446c10.762-18.661,14.485-29.073,24.373-29.211c9.889-0.139,14.82,10.31,9.559,20.381
				c-5.261,10.071-18.662,13.432-21.013,20.195c-2.351,6.763-0.178,19.807-0.178,19.807"/>
			<path style="fill:none;stroke:#263238;stroke-linecap:round;stroke-linejoin:round;stroke-miterlimit:10;" d="M370.241,323.062
				c0,0-20.37,23.152-25.591,31.595c-5.22,8.443-2.586,24.735,12.06,32.6c14.646,7.865,30.056,7.298,36.156,0.536
				s8.414-19.395,8.444-25.479c0.029-6.084-5.525-27.273-5.777-29.461C395.28,330.665,379.844,329.817,370.241,323.062z"/>
			<path style="fill:none;stroke:#263238;stroke-linecap:round;stroke-linejoin:round;stroke-miterlimit:10;" d="M395.532,332.853
				c0,0,1.993-10.859,11.228-16.405s22.152-10.877,22.465-24.606c0.313-13.729-13.921-18.418-23.61-10.671
				c-9.69,7.747-10.721,17.033-20.131,24.633c-9.409,7.601-15.244,17.258-15.244,17.258"/>
		</g>
		<path style="fill:none;stroke:#263238;stroke-linecap:round;stroke-linejoin:round;stroke-miterlimit:10;" d="M359.398,336.167
			c5.653-3.22,15.226-10.719,15.226-10.719s21.274,44.164,22.768,54.783"/>
		<path style="fill:none;stroke:#263238;stroke-linecap:round;stroke-linejoin:round;stroke-miterlimit:10;" d="M353.449,343.079
			c11.139-4.256,25.169-15.004,25.169-15.004s18.478,33.311,20.931,45.261"/>
		<path style="fill:none;stroke:#263238;stroke-linecap:round;stroke-linejoin:round;stroke-miterlimit:10;" d="M348.431,349.767
			c12.647-4.128,35.251-20.279,35.251-20.279s14.974,26.365,17.742,35.661"/>
		<path style="fill:none;stroke:#263238;stroke-linecap:round;stroke-linejoin:round;stroke-miterlimit:10;" d="M344.178,355.662
			c0,0,12.94-2.316,22.747-8.364c9.807-6.049,21.556-16.651,21.556-16.651s8.897,15,11.46,21.652"/>
		<path style="fill:none;stroke:#263238;stroke-linecap:round;stroke-linejoin:round;stroke-miterlimit:10;" d="M392.183,331.461
			c0,0-9.017,12.318-18.785,17.691c-9.768,5.373-21.22,9.531-23.806,10.098c-2.586,0.567-7.132,1.897-7.132,1.897"/>
		<path style="fill:none;stroke:#263238;stroke-linecap:round;stroke-linejoin:round;stroke-miterlimit:10;" d="M395.727,334.979
			c0,0-8.096,11.574-15.934,17.379c-7.839,5.805-23.366,11.44-28.538,12.573c-5.172,1.134-8.572,2.651-8.572,2.651"/>
		<path style="fill:none;stroke:#263238;stroke-linecap:round;stroke-linejoin:round;stroke-miterlimit:10;" d="M344.082,373.008
			c0,0,14.741-0.375,29.339-8.538c14.598-8.162,23.646-24.427,23.646-24.427"/>
		<path style="fill:none;stroke:#263238;stroke-linecap:round;stroke-linejoin:round;stroke-miterlimit:10;" d="M346.617,378.103
			c0,0,14.232,0.153,24.156-5.171c9.924-5.324,19.361-14.586,27.84-27.932"/>
		<path style="fill:none;stroke:#263238;stroke-linecap:round;stroke-linejoin:round;stroke-miterlimit:10;" d="M350.444,382.914
			c0,0,8.637,3.736,25.313-7.217c16.676-10.953,23.685-25.103,23.685-25.103"/>
		<path style="fill:none;stroke:#263238;stroke-linecap:round;stroke-linejoin:round;stroke-miterlimit:10;" d="M358.434,388.167
			c0,0,7.591,0.483,19.799-7.739c12.208-8.222,22.186-24.712,22.186-24.712"/>
		<path style="fill:none;stroke:#263238;stroke-linecap:round;stroke-linejoin:round;stroke-miterlimit:10;" d="M374.829,392.954
			c0,0,12.099-5.676,18.184-10.825c6.085-5.149,7.527-11.408,7.527-11.408"/>
		<path style="fill:none;stroke:#263238;stroke-linecap:round;stroke-linejoin:round;stroke-miterlimit:10;" d="M369.198,324.095
			c0,0,10.987,27.009,16.016,40.626s8.199,19.427,6.464,23.873"/>
		<path style="fill:none;stroke:#263238;stroke-linecap:round;stroke-linejoin:round;stroke-miterlimit:10;" d="M365.92,327.972
			c0,0,9.311,19.172,13.868,35.395c4.557,16.222,6.648,28.232,6.648,28.232"/>
		<path style="fill:none;stroke:#263238;stroke-linecap:round;stroke-linejoin:round;stroke-miterlimit:10;" d="M362.059,332.613
			c0,0,7.027,12.178,11.362,31.858c4.335,19.68,6.31,28.212,6.31,28.212"/>
		<path style="fill:none;stroke:#263238;stroke-linecap:round;stroke-linejoin:round;stroke-miterlimit:10;" d="M357.384,338.203
			c0,0,9.284,24.756,11.502,38.009c2.217,13.253,4.038,16.232,4.038,16.232"/>
		<path style="fill:none;stroke:#263238;stroke-linecap:round;stroke-linejoin:round;stroke-miterlimit:10;" d="M351.896,344.744
			c0,0,3.866,6.888,8.463,22.434c4.596,15.546,5.45,23.814,5.45,23.814s5.789-1.457,18.839-9.071
			c13.05-7.614,16.866-20.356,16.866-20.356"/>
		<path style="fill:none;stroke:#263238;stroke-linecap:round;stroke-linejoin:round;stroke-miterlimit:10;" d="M346.976,351.118
			c0,0,3.393,12.245,7.885,22.081s6.369,15.929,6.369,15.929"/>
		<path style="fill:none;stroke:#263238;stroke-linecap:round;stroke-linejoin:round;stroke-miterlimit:10;" d="M343.163,358.355
			c0,0,3.325,11.363,6.927,17.996c3.602,6.633,5.49,10.493,5.49,10.493"/>
	</g>
</g>
<g id="Bag_1">
	<g>
		<g>
			<g>
				<path style="fill:none;stroke:#263238;stroke-linecap:round;stroke-linejoin:round;stroke-miterlimit:10;" d="M376.981,181.371
					c0,0-8.49-20.958-2.778-25.624c5.711-4.666,14.664,9.202,17.051,19.854"/>
				<path style="fill:none;stroke:#263238;stroke-linecap:round;stroke-linejoin:round;stroke-miterlimit:10;" d="M381.042,179.875
					c0,0-8.49-20.958-2.778-25.624c5.711-4.667,14.664,9.202,17.051,19.854"/>
			</g>
			<polygon style="fill:#A3A3A3;stroke:#263238;stroke-linecap:round;stroke-linejoin:round;stroke-miterlimit:10;" points="
				434.973,226.807 377.218,248.085 360.95,186.613 360.897,186.364 408.22,169.927 			"/>
			<polygon style="fill:#D6D6D6;stroke:#263238;stroke-linecap:round;stroke-linejoin:round;stroke-miterlimit:10;" points="
				419.858,232.376 377.218,248.085 360.95,186.613 399.563,173.116 			"/>
			
				<line style="fill:none;stroke:#263238;stroke-linecap:round;stroke-linejoin:round;stroke-miterlimit:10;" x1="403.769" y1="172.015" x2="426.341" y2="229.806"/>
		</g>
		<g>
			<path d="M381.87,207.6c-0.593-0.209-1.246-0.699-1.958-1.47c-0.455-0.509-0.952-1.28-1.492-2.311
				c-0.434-0.838-0.795-1.649-1.084-2.434c-0.091-0.198-0.229-0.548-0.414-1.05l-0.295-0.8l-0.347-0.941
				c-0.248-0.674-0.522-1.492-0.822-2.45c-0.233-0.823-0.407-1.686-0.525-2.587c-0.096-0.891-0.053-1.691,0.131-2.4
				c0.173-0.741,0.543-1.358,1.109-1.852c0.352-0.254,0.7-0.445,1.045-0.572c0.66-0.243,1.07-0.144,1.232,0.295
				c0.064,0.173,0.056,0.331-0.025,0.477c-0.08,0.145-0.214,0.252-0.402,0.321c-0.063,0.023-0.182,0.04-0.356,0.051l-0.347,0.075
				c-0.298,0.11-0.531,0.298-0.7,0.565c-0.169,0.267-0.268,0.602-0.298,1.005c-0.083,0.886-0.023,1.799,0.181,2.74
				c0.232,1.162,0.49,2.154,0.776,2.975c0.228,0.718,0.487,1.469,0.776,2.254l0.234,0.635c0.065,0.226,0.158,0.503,0.28,0.833
				c0.295,0.8,0.623,1.57,0.985,2.31c0.398,0.887,0.86,1.607,1.385,2.163c0.523,0.645,1.121,1.013,1.796,1.102
				c0.325,0.059,0.682,0.016,1.075-0.128c0.691-0.255,1.15-0.798,1.378-1.631c-0.218-0.543-0.455-1.066-0.711-1.569
				c-0.257-0.502-0.483-0.824-0.678-0.966c-0.016,0.006-0.049,0.023-0.101,0.051c-0.052,0.028-0.13,0.07-0.234,0.126l-0.547,0.255
				c-0.534,0.197-0.885,0.068-1.052-0.387c-0.052-0.142-0.019-0.296,0.097-0.463c0.116-0.167,0.299-0.324,0.549-0.47
				c0.399-0.271,0.77-0.471,1.116-0.598c0.313-0.116,0.601-0.088,0.86,0.085c0.259,0.172,0.456,0.438,0.589,0.799
				c0.191,0.518,0.529,1.195,1.016,2.031c0.481,0.821,0.816,1.49,1.007,2.008c0.064,0.173,0.063,0.342,0,0.508
				c-0.064,0.166-0.174,0.278-0.331,0.336c-0.392,0.145-0.719,0.078-0.982-0.199l-0.009-0.024l-0.422,0.45
				c-0.373,0.44-0.724,0.721-1.053,0.843C383.436,207.906,382.627,207.911,381.87,207.6z"/>
			<path d="M391.056,204.671c-0.45-0.155-0.889-0.43-1.319-0.824c-0.768-0.68-1.533-1.717-2.295-3.111
				c-0.533-0.962-1.084-2.096-1.654-3.401l-0.483-1.238l-0.468-1.271c-0.166-0.403-0.356-0.893-0.57-1.474
				c-0.347-0.941-0.614-1.787-0.801-2.538c-0.215-0.776-0.333-1.579-0.354-2.409c0.014-0.736,0.208-1.324,0.58-1.764
				c0.236-0.229,0.495-0.396,0.777-0.5c0.832-0.307,1.612-0.219,2.342,0.26c0.805,0.541,1.461,1.235,1.97,2.081
				c0.656,1.006,1.184,2.005,1.585,2.998c0.473,1.091,0.892,2.131,1.256,3.119l0.494,1.341c0.098,0.267,0.244,0.784,0.437,1.55
				c0.151,0.603,0.302,1.109,0.453,1.517l0.035,0.094c0.068,0.474,0.212,1.009,0.431,1.605c0.162,0.439,0.235,0.929,0.22,1.47
				c-0.014,0.54-0.134,1.038-0.358,1.495c-0.207,0.504-0.53,0.837-0.968,0.998C391.942,204.826,391.505,204.826,391.056,204.671z
				 M392.415,202.192c-0.003-0.587-0.098-1.269-0.286-2.046c-0.188-0.777-0.425-1.648-0.708-2.612
				c-0.119-0.419-0.297-0.951-0.534-1.594l-0.821-2.157c-0.344-0.836-0.829-1.86-1.453-3.074c-0.525-1.036-1.113-1.906-1.764-2.611
				c-0.301-0.335-0.61-0.568-0.927-0.702c-0.316-0.133-0.608-0.15-0.875-0.052c-0.392,0.145-0.57,0.558-0.532,1.238
				c0.002,0.73,0.104,1.495,0.309,2.292c0.212,0.866,0.449,1.679,0.711,2.438l0.262,0.785c0.065,0.226,0.168,0.527,0.307,0.903
				l0.035,0.094c0.387,1.051,0.973,2.306,1.76,3.762c1.02,1.994,1.935,3.341,2.745,4.041c0.517,0.434,0.947,0.587,1.292,0.46
				C392.25,203.242,392.41,202.854,392.415,202.192z"/>
			<path d="M379.586,234.125c-0.593-0.209-1.246-0.699-1.958-1.47c-0.455-0.509-0.952-1.28-1.492-2.311
				c-0.434-0.838-0.795-1.649-1.084-2.434c-0.091-0.198-0.229-0.548-0.414-1.051l-0.295-0.8l-0.347-0.942
				c-0.248-0.674-0.522-1.491-0.822-2.45c-0.233-0.823-0.407-1.686-0.525-2.587c-0.096-0.891-0.053-1.691,0.131-2.4
				c0.173-0.741,0.542-1.358,1.109-1.852c0.352-0.254,0.7-0.445,1.045-0.572c0.66-0.243,1.07-0.144,1.232,0.295
				c0.064,0.173,0.056,0.331-0.025,0.477c-0.08,0.145-0.214,0.252-0.402,0.321c-0.063,0.023-0.182,0.04-0.356,0.051l-0.347,0.075
				c-0.298,0.11-0.531,0.298-0.7,0.565c-0.169,0.267-0.268,0.602-0.298,1.005c-0.084,0.886-0.023,1.8,0.181,2.74
				c0.232,1.163,0.49,2.154,0.776,2.975c0.228,0.718,0.487,1.469,0.776,2.254l0.234,0.635c0.065,0.226,0.158,0.503,0.28,0.832
				c0.295,0.8,0.623,1.57,0.985,2.31c0.398,0.887,0.86,1.608,1.385,2.163c0.523,0.645,1.121,1.013,1.796,1.102
				c0.325,0.059,0.682,0.016,1.075-0.128c0.691-0.255,1.15-0.798,1.378-1.631c-0.218-0.543-0.455-1.066-0.711-1.569
				c-0.257-0.502-0.483-0.824-0.678-0.966c-0.016,0.006-0.049,0.023-0.101,0.051c-0.052,0.028-0.13,0.07-0.234,0.126l-0.547,0.255
				c-0.534,0.197-0.885,0.068-1.052-0.387c-0.052-0.141-0.019-0.296,0.097-0.463c0.116-0.167,0.299-0.324,0.549-0.47
				c0.399-0.271,0.77-0.471,1.116-0.598c0.313-0.115,0.6-0.087,0.86,0.085c0.259,0.172,0.456,0.438,0.589,0.799
				c0.191,0.518,0.529,1.195,1.016,2.031c0.481,0.822,0.817,1.49,1.007,2.008c0.064,0.173,0.063,0.342,0,0.508
				c-0.064,0.166-0.174,0.278-0.331,0.336c-0.392,0.145-0.72,0.078-0.982-0.199l-0.009-0.024l-0.422,0.45
				c-0.373,0.44-0.724,0.721-1.053,0.843C381.152,234.431,380.343,234.435,379.586,234.125z"/>
			<path d="M390.092,229.988l-0.026-0.07c-0.354-0.814-0.836-1.688-1.448-2.621c-0.611-0.933-1.41-2.037-2.397-3.314
				c-0.744-0.955-1.392-1.821-1.946-2.598l3.417,9.273c0.092,0.251,0.116,0.452,0.074,0.601c-0.043,0.15-0.19,0.27-0.441,0.363
				c-0.188,0.069-0.359,0.066-0.512-0.012c-0.153-0.077-0.265-0.21-0.334-0.398l-0.069-0.188l-2.502-6.937
				c-0.72-2.051-1.552-4.356-2.494-6.913l-1.067-2.895c-0.069-0.188-0.078-0.332-0.025-0.432c0.052-0.099,0.204-0.195,0.455-0.288
				c0.392-0.144,0.781-0.203,1.165-0.175c0.385,0.027,0.744,0.131,1.077,0.311c0.689,0.37,1.245,0.913,1.67,1.63
				c0.178,0.291,0.342,0.641,0.492,1.048c0.087,0.236,0.163,0.501,0.228,0.798c0.065,0.297,0.104,0.488,0.117,0.572
				c0.027,0.168,0.043,0.43,0.048,0.784c0.006,0.354,0.01,0.584,0.014,0.69l-0.039,0.763l-0.01,0.698
				c0.224,0.559,0.585,1.237,1.083,2.034c0.498,0.797,0.993,1.523,1.485,2.18c0.347,0.46,0.948,1.219,1.801,2.277l1.446,1.82
				l0.017,0.047c0.098,0.267,0.159,0.503,0.181,0.709c0.046,0.268-0.073,0.455-0.355,0.559
				C390.898,230.413,390.53,230.307,390.092,229.988z M384.301,219.13l-0.393-2.154c-0.013-0.084-0.046-0.197-0.098-0.338
				c-0.168-0.455-0.448-0.949-0.84-1.481c-0.199-0.248-0.408-0.442-0.629-0.584c-0.222-0.141-0.414-0.191-0.576-0.148l0.82,2.371
				c0.34,1.069,0.617,1.893,0.831,2.473c0.202,0.549,0.343,0.908,0.422,1.074C383.977,220.042,384.131,219.638,384.301,219.13z"/>
			<path d="M394.132,228.98c-0.296,0.02-0.51-0.15-0.643-0.511l-5.038-13.675c-0.098-0.267-0.292-0.649-0.583-1.148
				c-0.289-0.446-0.491-0.825-0.607-1.14l-0.026-0.071c0.105-0.537,0.197-0.892,0.276-1.064c0.22-0.081,0.498-0.219,0.836-0.415
				c0.307-0.184,0.586-0.322,0.837-0.415s0.521-0.107,0.812-0.045c0.291,0.063,0.473,0.196,0.548,0.399
				c0.173,0.471-0.101,0.84-0.822,1.105l-0.33,0.122c-0.099,0.019-0.212,0.051-0.338,0.097c-0.141,0.052-0.225,0.092-0.251,0.119
				c0.197,0.533,0.465,1.165,0.805,1.895l0.29,0.642l0.525,1.277c0.11,0.298,0.254,0.762,0.432,1.391l0.438,1.336l0.304-0.192
				c0.279-0.21,0.521-0.352,0.724-0.427c0.173-0.064,0.355-0.055,0.545,0.026c0.19,0.082,0.317,0.209,0.381,0.381
				c0.069,0.188,0.073,0.378,0.01,0.571c-0.063,0.193-0.181,0.32-0.354,0.384l-0.291,0.081l-0.306,0.113
				c-0.236,0.087-0.379,0.202-0.433,0.347l2.679,7.273l1.292-0.556c0.894-0.329,1.417-0.29,1.567,0.118l0.035,0.094
				c-0.024,0.223-0.141,0.439-0.349,0.65c-0.208,0.21-0.423,0.374-0.647,0.492l-0.768,0.31l-0.729,0.269
				C394.653,228.922,394.379,228.978,394.132,228.98z"/>
			<path d="M400.674,226.57c-0.296,0.02-0.51-0.15-0.643-0.511l-5.038-13.675c-0.098-0.267-0.292-0.649-0.583-1.148
				c-0.289-0.446-0.491-0.825-0.607-1.14l-0.026-0.071c0.105-0.537,0.197-0.892,0.276-1.064c0.22-0.081,0.498-0.219,0.836-0.415
				c0.307-0.184,0.586-0.323,0.837-0.415s0.521-0.107,0.812-0.045c0.29,0.063,0.473,0.196,0.548,0.399
				c0.173,0.471-0.101,0.839-0.822,1.105l-0.33,0.122c-0.099,0.019-0.212,0.051-0.338,0.097c-0.141,0.052-0.225,0.092-0.251,0.119
				c0.197,0.533,0.465,1.165,0.805,1.895l0.289,0.642l0.525,1.277c0.11,0.298,0.254,0.762,0.432,1.391l0.438,1.336l0.304-0.192
				c0.279-0.21,0.521-0.352,0.724-0.427c0.173-0.064,0.354-0.055,0.545,0.026c0.19,0.082,0.317,0.209,0.381,0.381
				c0.069,0.188,0.073,0.378,0.01,0.571c-0.063,0.193-0.181,0.32-0.354,0.384l-0.291,0.081l-0.306,0.113
				c-0.235,0.087-0.379,0.202-0.433,0.347l2.679,7.273l1.292-0.556c0.894-0.33,1.417-0.29,1.567,0.118l0.035,0.094
				c-0.024,0.223-0.141,0.44-0.349,0.65c-0.208,0.21-0.423,0.374-0.647,0.492l-0.769,0.31l-0.729,0.269
				C401.196,226.512,400.922,226.568,400.674,226.57z"/>
			<path d="M408.87,218.418c-2.492-3.377-4.721-6.503-6.689-9.378l2.844,7.72c0.243,0.659,0.719,1.758,1.429,3.296
				c0.745,1.686,1.211,2.779,1.396,3.281c0.052,0.141,0.01,0.295-0.125,0.46c-0.135,0.167-0.313,0.289-0.532,0.37
				c-0.33,0.121-0.541,0.057-0.633-0.194l-0.204-0.7c-0.154-0.514-0.26-0.849-0.318-1.006c-0.306-0.831-0.839-2.132-1.598-3.902
				c-0.771-1.801-1.228-2.898-1.372-3.29l-1.11-3.013c-0.179-0.486-0.421-1.217-0.727-2.191c-0.244-0.855-0.478-1.588-0.703-2.2
				l-0.052-0.141c-0.289-0.785-0.261-1.241,0.084-1.368c0.203-0.075,0.59,0.175,1.158,0.749c0.935,0.939,2.34,2.72,4.215,5.344
				c1.079,1.527,2.417,3.511,4.012,5.953c-0.04-0.057,0.285,0.439,0.975,1.485l0.066,0.109c-0.561-1.522-1.048-2.893-1.461-4.113
				l-1.462-4.113l-2.566-6.967c-0.082-0.415,0.096-0.704,0.536-0.866c0.423-0.156,0.748,0.072,0.973,0.684l0.052,0.141
				c-0.024,0.223,0.012,0.468,0.11,0.735c0.353,0.957,0.862,2.409,1.525,4.357c0.67,1.963,1.184,3.431,1.542,4.404l2.645,7.179
				c0.092,0.251,0.114,0.515,0.065,0.792c-0.05,0.276-0.168,0.45-0.357,0.519C412.273,222.671,411.034,221.292,408.87,218.418z"/>
		</g>
	</g>
</g>
<g id="Recycle_Icon">
	<g id="_x31_Kyg3j_2_">
		<g>
			<path style="fill:#263238;" d="M329.014,105.581c-0.546-0.919-1.053-1.776-1.563-2.63c-1.668-2.789-3.337-5.577-5.005-8.367
				c-0.406-0.68-0.366-0.883,0.293-1.278c3.917-2.352,7.836-4.7,11.757-7.048c0.561-0.336,0.833-0.268,1.166,0.289
				c2.395,3.994,4.796,7.984,7.178,11.985c1.139,1.912,1.087,3.872-0.009,5.762c-2.716,4.682-5.466,9.343-8.227,13.998
				c-1.1,1.855-2.77,2.798-4.933,2.811c-2.162,0.013-4.325-0.002-6.487-0.004c-0.21,0-0.419,0-0.692,0
				c-0.012,0.212-0.03,0.397-0.031,0.582c-0.004,1.283-0.006,2.567-0.004,3.85c0,0.368-0.022,0.726-0.453,0.848
				c-0.425,0.12-0.636-0.163-0.837-0.475c-2.566-3.97-5.132-7.94-7.71-11.903c-0.253-0.39-0.278-0.705-0.016-1.104
				c2.6-3.969,5.186-7.947,7.777-11.922c0.019-0.029,0.041-0.057,0.058-0.088c0.178-0.308,0.464-0.521,0.777-0.34
				c0.207,0.12,0.401,0.45,0.408,0.692c0.039,1.247,0.017,2.496,0.016,3.744c0,0.188,0,0.377,0,0.598
				C324.668,105.581,326.797,105.581,329.014,105.581z M321.108,123.536c0.039-0.01,0.077-0.02,0.116-0.03
				c0-0.886-0.003-1.773,0.001-2.659c0.003-0.83,0.156-0.983,0.988-0.982c2.409,0.002,4.817-0.013,7.226,0.016
				c1.905,0.023,3.289-0.786,4.245-2.426c2.026-3.477,4.076-6.94,6.115-10.409c0.076-0.13,0.137-0.268,0.193-0.378
				c-0.747,0.066-1.472,0.176-2.198,0.186c-1.846,0.025-3.692,0.006-5.538,0.004c-3.375-0.004-6.751-0.007-10.126-0.013
				c-0.695-0.001-0.873-0.183-0.879-0.877c-0.004-0.492-0.001-0.984-0.001-1.477c0-0.37,0-0.74,0-1.231
				c-0.143,0.162-0.183,0.198-0.212,0.241c-2.092,3.209-4.179,6.422-6.283,9.624c-0.189,0.288-0.096,0.465,0.057,0.7
				c1.638,2.52,3.267,5.045,4.9,7.567C320.175,122.109,320.642,122.822,321.108,123.536z M323.677,94.179
				c0.034,0.096,0.041,0.132,0.058,0.161c2.191,3.665,4.379,7.331,6.586,10.986c0.092,0.152,0.358,0.278,0.544,0.28
				c2.409,0.025,4.818,0.053,7.227,0.024c3.474-0.042,5.428-3.565,3.648-6.546c-2.208-3.697-4.426-7.388-6.641-11.081
				c-0.095-0.158-0.203-0.309-0.318-0.481C331.053,89.758,327.378,91.962,323.677,94.179z"/>
			<path style="fill:#263238;" d="M287.996,92.464c-1.243-0.767-2.439-1.505-3.634-2.243c-0.164-0.102-0.381-0.172-0.476-0.319
				c-0.129-0.2-0.26-0.484-0.21-0.688c0.042-0.17,0.331-0.301,0.534-0.4c0.114-0.056,0.277-0.016,0.417-0.016
				c4.59,0,9.179,0.009,13.769-0.012c0.575-0.003,0.888,0.195,1.152,0.696c2.047,3.885,4.117,7.758,6.184,11.632
				c0.174,0.326,0.332,0.657,0.023,0.966c-0.33,0.33-0.67,0.155-1.006-0.041c-1.167-0.683-2.341-1.356-3.573-2.069
				c-1.116,1.856-2.22,3.694-3.384,5.63c0.312,0,0.499,0,0.686,0c4.044,0.003,8.089,0.005,12.133,0.008
				c0.826,0.001,0.983,0.156,0.983,0.986c0.001,4.519,0.001,9.038,0.001,13.558c0,0.761-0.169,0.933-0.924,0.934
				c-4.59,0.002-9.179-0.001-13.769,0.001c-2.267,0.001-3.972-1.012-5.054-2.965c-2.64-4.766-5.25-9.548-7.824-14.35
				c-1.049-1.958-0.919-3.934,0.304-5.801C285.52,96.148,286.741,94.344,287.996,92.464z M291.268,114.508
				c0.269-0.609,0.455-1.185,0.757-1.691c2.721-4.557,5.461-9.103,8.198-13.651c0.461-0.766,0.642-0.803,1.429-0.345
				c0.644,0.374,1.291,0.744,2.046,1.18c-0.075-0.192-0.093-0.255-0.123-0.31c-1.668-3.133-3.332-6.267-5.019-9.39
				c-0.08-0.148-0.358-0.267-0.544-0.267c-3.71-0.017-7.42-0.014-11.13-0.012c-0.085,0-0.169,0.043-0.344,0.091
				c0.812,0.503,1.543,0.952,2.27,1.408c0.807,0.506,0.845,0.682,0.329,1.455c-1.23,1.842-2.453,3.688-3.693,5.523
				c-1.08,1.598-1.152,3.23-0.228,4.918c1.072,1.958,2.134,3.921,3.203,5.88C289.361,111.022,290.305,112.746,291.268,114.508z
				 M310.331,106.891c-0.112-0.023-0.163-0.042-0.213-0.042c-4.254-0.004-8.509-0.01-12.763,0.006
				c-0.174,0.001-0.413,0.175-0.512,0.337c-1.229,2.009-2.431,4.033-3.652,6.047c-0.886,1.461-0.992,2.96-0.145,4.451
				c0.846,1.488,2.179,2.168,3.893,2.163c4.272-0.012,8.544-0.004,12.816-0.004c0.186,0,0.372,0,0.576,0
				C310.331,115.486,310.331,111.202,310.331,106.891z"/>
			<path style="fill:#263238;" d="M329.717,76.726c1.197-0.674,2.344-1.319,3.491-1.964c0.153-0.086,0.299-0.228,0.46-0.248
				c0.255-0.031,0.631-0.079,0.752,0.058c0.149,0.17,0.203,0.576,0.103,0.788c-0.599,1.271-1.253,2.516-1.889,3.769
				c-1.376,2.711-2.77,5.413-4.114,8.139c-0.302,0.612-0.675,0.818-1.347,0.814c-4.642-0.027-9.283-0.015-13.925-0.015
				c-0.123,0-0.27,0.043-0.365-0.009c-0.241-0.131-0.594-0.268-0.647-0.47c-0.052-0.199,0.146-0.577,0.345-0.709
				c0.996-0.659,2.029-1.262,3.049-1.886c0.223-0.136,0.443-0.276,0.712-0.443c-1.106-1.888-2.193-3.743-3.322-5.669
				c-0.682,1.247-1.321,2.416-1.96,3.585c-1.409,2.575-2.817,5.149-4.226,7.724c-0.353,0.645-0.587,0.72-1.22,0.375
				c-4.026-2.197-8.052-4.395-12.076-6.595c-0.546-0.299-0.625-0.558-0.323-1.113c2.236-4.105,4.464-8.215,6.723-12.307
				c1.063-1.925,2.766-2.866,4.939-2.876c5.45-0.025,10.901-0.027,16.352,0.002c2.118,0.011,3.737,1.003,4.823,2.815
				c1.129,1.884,2.223,3.79,3.333,5.685C329.481,76.344,329.583,76.507,329.717,76.726z M315.061,86.784
				c0.228,0.03,0.309,0.05,0.391,0.05c3.831,0.001,7.663-0.004,11.494,0.007c0.317,0.001,0.461-0.125,0.595-0.39
				c1.559-3.089,3.13-6.173,4.696-9.259c0.082-0.161,0.147-0.331,0.274-0.62c-0.882,0.494-1.643,0.921-2.405,1.348
				c-0.732,0.41-0.92,0.357-1.341-0.363c-1.241-2.123-2.484-4.246-3.728-6.367c-0.895-1.526-2.233-2.294-3.997-2.296
				c-4.078-0.006-8.155-0.002-12.233,0c-0.147,0-0.293,0.018-0.466,0.028c0.371,0.47,0.76,0.862,1.032,1.323
				c2.758,4.676,5.498,9.362,8.238,14.048c0.32,0.548,0.246,0.784-0.305,1.123C316.602,85.847,315.896,86.274,315.061,86.784z
				 M305.863,89.302c0.081-0.089,0.11-0.111,0.126-0.14c2.048-3.744,4.1-7.486,6.129-11.24c0.088-0.163,0.041-0.476-0.06-0.652
				c-1.207-2.102-2.434-4.192-3.663-6.282c-0.449-0.763-1.081-1.334-1.893-1.695c-2.118-0.943-4.398-0.122-5.591,2.041
				c-1.654,2.999-3.287,6.01-4.928,9.016c-0.493,0.904-0.986,1.808-1.495,2.742C298.308,85.177,302.079,87.236,305.863,89.302z"/>
			<path style="fill:#92E3A9;" d="M321.108,123.536c-0.466-0.714-0.933-1.427-1.396-2.143c-1.633-2.523-3.263-5.048-4.9-7.567
				c-0.153-0.235-0.246-0.412-0.057-0.7c2.103-3.202,4.19-6.415,6.283-9.624c0.028-0.044,0.069-0.079,0.212-0.241
				c0,0.491,0,0.861,0,1.231c0,0.492-0.003,0.984,0.001,1.477c0.006,0.694,0.184,0.875,0.879,0.877
				c3.375,0.006,6.751,0.009,10.126,0.013c1.846,0.002,3.692,0.021,5.538-0.004c0.726-0.01,1.451-0.12,2.198-0.186
				c-0.055,0.109-0.116,0.248-0.193,0.378c-2.039,3.47-4.089,6.932-6.115,10.409c-0.955,1.64-2.34,2.448-4.245,2.426
				c-2.408-0.029-4.817-0.014-7.226-0.016c-0.831-0.001-0.985,0.152-0.988,0.982c-0.003,0.886-0.001,1.773-0.001,2.659
				C321.185,123.516,321.146,123.526,321.108,123.536z"/>
			<path style="fill:#92E3A9;" d="M323.677,94.179c3.7-2.218,7.375-4.421,11.103-6.656c0.114,0.172,0.223,0.323,0.318,0.481
				c2.215,3.693,4.433,7.384,6.641,11.081c1.78,2.98-0.174,6.504-3.648,6.546c-2.409,0.029-4.818,0-7.227-0.024
				c-0.186-0.002-0.452-0.128-0.544-0.28c-2.207-3.655-4.395-7.322-6.586-10.986C323.718,94.311,323.711,94.275,323.677,94.179z"/>
			<path style="fill:#92E3A9;" d="M291.268,114.508c-0.963-1.761-1.908-3.485-2.849-5.211c-1.069-1.96-2.131-3.923-3.203-5.88
				c-0.925-1.688-0.852-3.32,0.228-4.918c1.24-1.835,2.464-3.681,3.693-5.523c0.516-0.773,0.478-0.949-0.329-1.455
				c-0.727-0.456-1.458-0.905-2.27-1.408c0.175-0.048,0.259-0.091,0.344-0.091c3.71-0.002,7.42-0.004,11.13,0.012
				c0.186,0.001,0.465,0.12,0.544,0.267c1.687,3.123,3.351,6.257,5.019,9.39c0.03,0.056,0.047,0.118,0.123,0.31
				c-0.755-0.435-1.402-0.805-2.046-1.18c-0.788-0.458-0.968-0.42-1.429,0.345c-2.737,4.548-5.477,9.093-8.198,13.651
				C291.723,113.323,291.537,113.898,291.268,114.508z"/>
			<path style="fill:#92E3A9;" d="M310.331,106.891c0,4.312,0,8.595,0,12.957c-0.204,0-0.39,0-0.576,0
				c-4.272,0-8.544-0.008-12.816,0.004c-1.713,0.005-3.046-0.675-3.893-2.163c-0.848-1.491-0.741-2.99,0.145-4.451
				c1.221-2.014,2.423-4.038,3.652-6.047c0.099-0.161,0.337-0.336,0.512-0.337c4.254-0.016,8.509-0.01,12.763-0.006
				C310.169,106.848,310.219,106.868,310.331,106.891z"/>
			<path style="fill:#92E3A9;" d="M315.061,86.784c0.836-0.51,1.541-0.937,2.244-1.369c0.551-0.34,0.625-0.575,0.305-1.123
				c-2.74-4.686-5.48-9.372-8.238-14.048c-0.272-0.461-0.661-0.853-1.032-1.323c0.173-0.011,0.319-0.028,0.466-0.028
				c4.078-0.002,8.155-0.006,12.233,0c1.764,0.003,3.103,0.771,3.997,2.296c1.244,2.122,2.487,4.244,3.728,6.367
				c0.421,0.72,0.609,0.773,1.341,0.363c0.762-0.427,1.523-0.854,2.405-1.348c-0.127,0.289-0.192,0.459-0.274,0.62
				c-1.566,3.086-3.137,6.17-4.696,9.259c-0.134,0.265-0.277,0.391-0.595,0.39c-3.831-0.011-7.663-0.006-11.494-0.007
				C315.37,86.834,315.289,86.814,315.061,86.784z"/>
			<path style="fill:#92E3A9;" d="M305.863,89.302c-3.784-2.066-7.556-4.126-11.374-6.211c0.509-0.934,1.002-1.839,1.495-2.742
				c1.641-3.006,3.274-6.017,4.928-9.016c1.193-2.163,3.473-2.984,5.591-2.041c0.812,0.361,1.444,0.932,1.893,1.695
				c1.229,2.089,2.455,4.18,3.663,6.282c0.101,0.176,0.148,0.489,0.06,0.652c-2.029,3.754-4.081,7.496-6.129,11.24
				C305.973,89.192,305.944,89.214,305.863,89.302z"/>
		</g>
	</g>
</g>
<g id="Lunch_Box">
	<g>
		<g>
			
				<rect x="129.463" y="70.294" transform="matrix(0.9875 0.1573 -0.1573 0.9875 17.5937 -22.6964)" style="fill:#92E3A9;stroke:#263238;stroke-linecap:round;stroke-linejoin:round;stroke-miterlimit:10;" width="45.361" height="58.953"/>
			
				<rect x="129.006" y="78.101" transform="matrix(0.1573 -0.9875 0.9875 0.1573 34.0206 241.437)" style="fill:#92E3A9;stroke:#263238;stroke-linecap:round;stroke-linejoin:round;stroke-miterlimit:10;" width="58.959" height="45.364"/>
			
				<rect x="129.863" y="81.176" transform="matrix(0.1573 -0.9875 0.9875 0.1573 32.894 242.1253)" style="fill:#263238;stroke:#263238;stroke-linecap:round;stroke-linejoin:round;stroke-miterlimit:10;" width="56.925" height="41.223"/>
			
				<line style="fill:#92E3A9;stroke:#FFFFFF;stroke-linecap:round;stroke-linejoin:round;stroke-miterlimit:10;" x1="176.381" y1="76.03" x2="171.382" y2="107.403"/>
		</g>
		
			<rect x="126.268" y="107.325" transform="matrix(0.9875 0.1573 -0.1573 0.9875 21.1218 -24.5357)" style="fill:#92E3A9;stroke:#263238;stroke-linecap:round;stroke-linejoin:round;stroke-miterlimit:10;" width="78.512" height="27.619"/>
		
			<rect x="158.195" y="109.852" transform="matrix(0.9875 0.1573 -0.1573 0.9875 21.717 -27.0001)" style="fill:#92E3A9;stroke:#263238;stroke-linecap:round;stroke-linejoin:round;stroke-miterlimit:10;" width="46.385" height="27.619"/>
		<path style="fill:#263238;stroke:#263238;stroke-linecap:round;stroke-linejoin:round;stroke-miterlimit:10;" d="M199.556,122.506
			l-3.371-0.537c-0.347-0.055-0.702,0.036-0.985,0.246c-0.283,0.21-0.467,0.528-0.515,0.877c-0.003,0.027-0.389,2.724-2.71,4.45
			c-1.876,1.396-4.528,1.834-7.882,1.299c-0.023-0.004-0.045,0.005-0.068,0.003c-0.023-0.005-0.04-0.02-0.064-0.024
			c-3.354-0.535-5.739-1.774-7.088-3.685c-1.67-2.363-1.199-5.045-1.195-5.065c0.068-0.347-0.007-0.708-0.21-0.998
			c-0.203-0.29-0.515-0.486-0.865-0.542l-3.371-0.537c-0.712-0.113-1.38,0.372-1.494,1.083c-0.113,0.712,0.371,1.38,1.083,1.494
			l2.183,0.348c-0.012,1.374,0.246,3.589,1.708,5.681c1.767,2.53,4.74,4.145,8.838,4.798c0.023,0.004,0.045-0.005,0.068-0.003
			c0.023,0.005,0.04,0.02,0.064,0.024c4.098,0.653,7.426,0.043,9.892-1.813c2.039-1.534,2.973-3.559,3.388-4.869l2.183,0.348
			c0.712,0.113,1.38-0.372,1.494-1.083C200.753,123.288,200.268,122.619,199.556,122.506z"/>
	</g>
</g>
<g id="Bottle_2">
	<g>
		<polygon style="fill:#92E3A9;stroke:#263238;stroke-linecap:round;stroke-linejoin:round;stroke-miterlimit:10;" points="
			87.963,168.928 104.061,164.376 103.853,166.356 96.518,170.206 		"/>
		
			<rect x="87.293" y="169.946" transform="matrix(0.9945 0.1045 -0.1045 0.9945 18.906 -9.2091)" style="fill:#92E3A9;stroke:#263238;stroke-linecap:round;stroke-linejoin:round;stroke-miterlimit:10;" width="20.1" height="11.772"/>
		<path style="fill:#FFFFFF;stroke:#263238;stroke-linecap:round;stroke-linejoin:round;stroke-miterlimit:10;" d="M107.365,182.804
			l-21.274-2.235c-1.306-0.137-2.477,0.811-2.614,2.117l-6.052,57.597c-0.176,1.678,1.041,3.182,2.72,3.358l19.927,2.094
			c1.678,0.176,3.182-1.041,3.358-2.72l6.052-57.597C109.619,184.111,108.671,182.941,107.365,182.804z"/>
	</g>
</g>
<g id="Yogurt">
	<g>
		<polygon style="fill:#92E3A9;stroke:#263238;stroke-linecap:round;stroke-linejoin:round;stroke-miterlimit:10;" points="
			106.609,289.245 104.199,316.345 76.939,316.345 76.609,312.595 75.199,296.815 74.529,289.245 		"/>
		
			<rect x="73.094" y="289.246" style="fill:#FFFFFF;stroke:#263238;stroke-linecap:round;stroke-linejoin:round;stroke-miterlimit:10;" width="34.95" height="4.979"/>
		<polygon style="fill:#FFFFFF;stroke:#263238;stroke-linecap:round;stroke-linejoin:round;stroke-miterlimit:10;" points="
			97.949,296.815 97.949,312.595 76.609,312.595 75.199,296.815 		"/>
	</g>
</g>
<g id="Bottle_1_1_">
	<g>
		<path style="fill:#FFFFFF;stroke:#263238;stroke-linecap:round;stroke-linejoin:round;stroke-miterlimit:10;" d="M160.006,348.37
			l-28.397,6.999c-1.275,0.314-2.055,1.603-1.74,2.879l9.717,39.425c0.404,1.639,2.06,2.639,3.698,2.236l27.082-6.675
			c1.639-0.404,2.639-2.059,2.236-3.698l-9.717-39.425C162.57,348.835,161.282,348.056,160.006,348.37z"/>
		
			<line style="fill:#FFFFFF;stroke:#263238;stroke-linecap:round;stroke-linejoin:round;stroke-miterlimit:10;" x1="166.835" y1="377.619" x2="160.538" y2="352.07"/>
		
			<line style="fill:#FFFFFF;stroke:#263238;stroke-linecap:round;stroke-linejoin:round;stroke-miterlimit:10;" x1="169.12" y1="386.888" x2="167.787" y2="381.481"/>
		
			<rect x="130.643" y="344.216" transform="matrix(0.9709 -0.2393 0.2393 0.9709 -79.093 44.7848)" style="fill:#263238;stroke:#263238;stroke-linecap:round;stroke-linejoin:round;stroke-miterlimit:10;" width="28.47" height="7.767"/>
	</g>
</g>
<g id="Floor">
	<g>
		
			<line style="fill:none;stroke:#263238;stroke-linecap:round;stroke-linejoin:round;stroke-miterlimit:10;" x1="418.181" y1="450.546" x2="57.84" y2="450.546"/>
		
			<line style="fill:none;stroke:#263238;stroke-linecap:round;stroke-linejoin:round;stroke-miterlimit:10;" x1="429.294" y1="450.546" x2="423.581" y2="450.546"/>
	</g>
</g>
</svg>
